<svg width="122" height="90" viewBox="0 0 122 90" fill="none" xmlns="http://www.w3.org/2000/svg">
<path d="M47.0304 59.2948V72.6659C40.7536 75.1557 30.909 73.7033 26.7713 72.6659V59.2948C26.7713 57.266 28.0204 55.2219 28.645 54.4535C18.9956 52.517 15.7244 48.3443 15.2951 46.5C8.92458 38.3851 12.6407 28.8255 15.2951 25.06C17.9182 21.7403 24.0389 19.5271 26.7713 18.8355C32.486 16.5302 42.6585 17.875 47.0304 18.8355C51.3399 19.5733 56.1646 23.2926 58.0382 25.06C63.9403 31.7917 61.9808 40.8518 60.2632 44.5404C58.7643 51.4565 48.865 54.0308 44.1028 54.4535C45.8828 55.4678 46.7962 58.1037 47.0304 59.2948Z" fill="white" stroke="black" stroke-width="3"/>
<path d="M25.0706 30.1451C25.3246 29.5567 26.0657 28.5412 26.7906 28.452C27.0547 28.4195 27.2118 28.1698 27.5073 28.1698C27.85 28.1698 28.1549 28.3109 28.4391 28.3109C28.8812 28.3109 29.5382 28.9934 29.6495 29.3769C29.8046 29.9115 29.9441 30.8199 29.9441 29.7218" stroke="black" stroke-width="3" stroke-linecap="round"/>
<path d="M43.4183 30.1452C44.1487 29.1567 44.8126 28.2107 46.2055 28.46C47.4561 28.6838 47.8619 28.9937 47.8619 30.2863" stroke="black" stroke-width="3" stroke-linecap="round"/>
<path d="M27.0777 33.9545C27.0777 34.1596 26.9188 35.1853 27.2211 35.334C27.3584 35.4016 27.5756 34.9381 27.683 34.8324C27.7662 34.7504 28.2463 34.4771 28.1926 34.4091C28.0541 34.2338 27.8037 34.0114 27.5794 33.9623C27.1398 33.8661 27.0226 35.2243 27.4361 35.2243C27.9075 35.2243 28.4129 34.3283 27.5078 34.3777C25.8191 34.4701 27.146 36.6314 28.0811 35.0205C28.3184 34.6118 27.964 34.0956 27.4361 34.0956C26.5941 34.0956 26.7911 34.6944 26.7911 35.3654" stroke="black" stroke-width="3" stroke-linecap="round"/>
<path d="M45.2823 33.8135C45.3201 35.3397 47.0396 34.8943 46.7077 33.7508C46.4978 33.0278 44.4023 34.6601 45.8556 34.6601C46.327 34.6601 46.429 34.404 46.429 33.9546C46.429 33.4566 45.5285 33.6047 45.4336 34.0252C45.3448 34.4183 45.4131 34.9324 45.7441 35.1931C46.0515 35.4351 46.429 34.26 46.429 34.0252C46.429 33.2384 44.8042 33.8096 44.8522 34.6601C44.8893 35.316 46.5723 34.9477 46.5723 34.1662C46.5723 33.6443 46.068 33.8135 45.6406 33.8135C45.0891 33.8135 45.1114 34.2003 45.1389 34.6601C45.1945 35.5904 47.4043 34.2368 45.7123 34.2368" stroke="black" stroke-width="3" stroke-linecap="round"/>
<path d="M37.9717 31.1328C37.9717 33.6606 38.6884 36.0205 38.6884 38.5402C38.6884 39.5838 38.4765 40.1413 37.8284 40.9388C37.4345 41.4234 36.0254 40.3038 35.5349 40.3038" stroke="black" stroke-width="3" stroke-linecap="round"/>
<path d="M33.8148 46.7941C34.6186 48.6558 36.5098 48.8255 37.3983 47.0763" stroke="black" stroke-width="3" stroke-linecap="round"/>
<path d="M31.3691 42.551C31.3119 42.6951 30.8078 43.9823 30.6533 43.6783" stroke="black" stroke-width="3" stroke-linecap="round"/>
<path d="M34.6617 41.9877V43.5376" stroke="black" stroke-width="3" stroke-linecap="round"/>
<path d="M39.2429 42.551C39.2429 43.1465 39.1979 43.7528 39.5292 44.2419" stroke="black" stroke-width="3" stroke-linecap="round"/>
<path d="M42.6785 42.4104C43.1452 42.7584 43.7648 43.4382 44.2531 43.6786" stroke="black" stroke-width="3" stroke-linecap="round"/>
<path d="M33.6593 19.4426C33.068 20.1814 32.5298 20.8383 32.1165 21.6971C31.9199 22.1058 31.5121 22.809 31.5121 23.2471" stroke="black" stroke-width="3" stroke-linecap="round"/>
<path d="M36.9521 19.7246V23.2473" stroke="black" stroke-width="3" stroke-linecap="round"/>
<path d="M40.1016 19.8654C41.172 20.2309 41.5612 20.6479 42.0739 21.5562C42.2218 21.8184 42.5029 22.7381 42.6783 22.8244" stroke="black" stroke-width="3" stroke-linecap="round"/>
<path d="M55.7358 72.0979V79.6952C52.1694 81.1098 46.5759 80.2846 44.225 79.6952V72.0979C44.225 70.9452 44.9347 69.7838 45.2896 69.3472C39.8069 68.2469 37.9483 65.876 37.7044 64.8281C34.0848 60.2174 36.1962 54.7858 37.7044 52.6464C39.1948 50.7602 42.6724 49.5027 44.225 49.1097C47.472 47.7999 53.2518 48.5639 55.7358 49.1097C58.1844 49.5289 60.9257 51.6421 61.9903 52.6464C65.3437 56.4712 64.2303 61.619 63.2545 63.7148C62.4028 67.6444 57.0218 69.0294 54.4924 69.3472C55.3355 70.2941 55.6027 71.4212 55.7358 72.0979Z" fill="white" stroke="black" stroke-width="2"/>
<path d="M43.2587 55.5355C43.403 55.2012 43.8241 54.6242 44.236 54.5735C44.386 54.5551 44.4753 54.4132 44.6432 54.4132C44.8379 54.4132 45.0112 54.4934 45.1726 54.4934C45.4238 54.4934 45.7971 54.8812 45.8603 55.0991C45.9485 55.4028 46.0277 55.9189 46.0277 55.295" stroke="black" stroke-width="2" stroke-linecap="round"/>
<path d="M53.6836 55.5357C54.0986 54.974 54.4758 54.4365 55.2672 54.5781C55.9778 54.7053 56.2083 54.8814 56.2083 55.6158" stroke="black" stroke-width="2" stroke-linecap="round"/>
<path d="M44.3991 57.7001C44.3991 57.8167 44.3088 58.3994 44.4805 58.4839C44.5585 58.5223 44.6819 58.2589 44.7429 58.1989C44.7902 58.1523 45.063 57.997 45.0325 57.9584C44.9538 57.8588 44.8115 57.7324 44.6841 57.7045C44.4343 57.6499 44.3678 58.4216 44.6027 58.4216C44.8705 58.4216 45.1577 57.9125 44.6434 57.9406C43.6839 57.993 44.4378 59.221 44.9692 58.3058C45.104 58.0735 44.9026 57.7802 44.6027 57.7802C44.1243 57.7802 44.2362 58.1205 44.2362 58.5017" stroke="black" stroke-width="2" stroke-linecap="round"/>
<path d="M54.7426 57.62C54.7641 58.4871 55.7411 58.2341 55.5525 57.5844C55.4333 57.1735 54.2426 58.101 55.0684 58.101C55.3362 58.101 55.3942 57.9555 55.3942 57.7001C55.3942 57.4172 54.8825 57.5013 54.8286 57.7402C54.7781 57.9636 54.817 58.2557 55.005 58.4038C55.1797 58.5413 55.3942 57.8736 55.3942 57.7402C55.3942 57.2932 54.471 57.6178 54.4983 58.101C54.5193 58.4737 55.4756 58.2644 55.4756 57.8204C55.4756 57.5238 55.189 57.62 54.9462 57.62C54.6329 57.62 54.6455 57.8398 54.6612 58.101C54.6928 58.6296 55.9483 57.8605 54.9869 57.8605" stroke="black" stroke-width="2" stroke-linecap="round"/>
<path d="M50.5888 56.0968C50.5888 57.533 50.996 58.8739 50.996 60.3055C50.996 60.8985 50.8756 61.2153 50.5073 61.6684C50.2835 61.9437 49.4829 61.3076 49.2042 61.3076" stroke="black" stroke-width="2" stroke-linecap="round"/>
<path d="M48.2269 64.9954C48.6836 66.0531 49.7581 66.1496 50.263 65.1557" stroke="black" stroke-width="2" stroke-linecap="round"/>
<path d="M46.8376 62.5846C46.8051 62.6665 46.5187 63.3978 46.4309 63.2251" stroke="black" stroke-width="2" stroke-linecap="round"/>
<path d="M48.7081 62.2643V63.1449" stroke="black" stroke-width="2" stroke-linecap="round"/>
<path d="M51.3112 62.5846C51.3112 62.9229 51.2857 63.2674 51.4739 63.5453" stroke="black" stroke-width="2" stroke-linecap="round"/>
<path d="M53.2633 62.5044C53.5285 62.7021 53.8805 63.0884 54.158 63.2249" stroke="black" stroke-width="2" stroke-linecap="round"/>
<path d="M48.1386 49.4547C47.8026 49.8745 47.4968 50.2477 47.262 50.7357C47.1503 50.9679 46.9186 51.3674 46.9186 51.6163" stroke="black" stroke-width="2" stroke-linecap="round"/>
<path d="M50.0095 49.6147V51.6163" stroke="black" stroke-width="2" stroke-linecap="round"/>
<path d="M51.799 49.6949C52.4072 49.9027 52.6283 50.1396 52.9196 50.6557C53.0036 50.8046 53.1634 51.3272 53.263 51.3762" stroke="black" stroke-width="2" stroke-linecap="round"/>
<path d="M96.12 59.2948V72.6659C89.8432 75.1557 79.9986 73.7033 75.8609 72.6659V59.2948C75.8609 57.266 77.11 55.2219 77.7346 54.4535C68.0852 52.517 64.814 48.3443 64.3847 46.5C58.0142 38.3851 61.7303 28.8255 64.3847 25.06C67.0078 21.7403 73.1285 19.5271 75.8609 18.8355C81.5756 16.5302 91.7481 17.875 96.12 18.8355C100.429 19.5733 105.254 23.2926 107.128 25.06C113.03 31.7917 111.07 40.8518 109.353 44.5404C107.854 51.4565 97.9546 54.0308 93.1924 54.4535C94.9724 55.4678 95.8858 58.1037 96.12 59.2948Z" fill="white" stroke="black" stroke-width="3"/>
<path d="M74.1602 30.1451C74.4142 29.5567 75.1553 28.5412 75.8802 28.452C76.1443 28.4195 76.3014 28.1698 76.5969 28.1698C76.9396 28.1698 77.2445 28.3109 77.5287 28.3109C77.9708 28.3109 78.6278 28.9934 78.7391 29.3769C78.8942 29.9115 79.0337 30.8199 79.0337 29.7218" stroke="black" stroke-width="3" stroke-linecap="round"/>
<path d="M92.5079 30.1452C93.2383 29.1567 93.9022 28.2107 95.2951 28.46C96.5456 28.6838 96.9515 28.9937 96.9515 30.2863" stroke="black" stroke-width="3" stroke-linecap="round"/>
<path d="M76.1673 33.9545C76.1673 34.1596 76.0084 35.1853 76.3107 35.334C76.448 35.4016 76.6652 34.9381 76.7726 34.8324C76.8558 34.7504 77.3359 34.4771 77.2822 34.4091C77.1437 34.2338 76.8933 34.0114 76.669 33.9623C76.2294 33.8661 76.1122 35.2243 76.5257 35.2243C76.9971 35.2243 77.5025 34.3283 76.5974 34.3777C74.9087 34.4701 76.2356 36.6314 77.1707 35.0205C77.408 34.6118 77.0536 34.0956 76.5257 34.0956C75.6837 34.0956 75.8807 34.6944 75.8807 35.3654" stroke="black" stroke-width="3" stroke-linecap="round"/>
<path d="M94.3719 33.8135C94.4097 35.3397 96.1292 34.8943 95.7973 33.7508C95.5874 33.0278 93.4919 34.6601 94.9452 34.6601C95.4166 34.6601 95.5186 34.404 95.5186 33.9546C95.5186 33.4566 94.6181 33.6047 94.5232 34.0252C94.4344 34.4183 94.5027 34.9324 94.8337 35.1931C95.1411 35.4351 95.5186 34.26 95.5186 34.0252C95.5186 33.2384 93.8938 33.8096 93.9418 34.6601C93.9789 35.316 95.6619 34.9477 95.6619 34.1662C95.6619 33.6443 95.1576 33.8135 94.7302 33.8135C94.1787 33.8135 94.201 34.2003 94.2285 34.6601C94.2841 35.5904 96.4939 34.2368 94.8019 34.2368" stroke="black" stroke-width="3" stroke-linecap="round"/>
<path d="M87.0613 31.1328C87.0613 33.6606 87.778 36.0205 87.778 38.5402C87.778 39.5838 87.5661 40.1413 86.918 40.9388C86.5241 41.4234 85.115 40.3038 84.6245 40.3038" stroke="black" stroke-width="3" stroke-linecap="round"/>
<path d="M82.9044 46.7941C83.7082 48.6558 85.5994 48.8255 86.4879 47.0763" stroke="black" stroke-width="3" stroke-linecap="round"/>
<path d="M80.4587 42.551C80.4015 42.6951 79.8974 43.9823 79.7429 43.6783" stroke="black" stroke-width="3" stroke-linecap="round"/>
<path d="M83.7512 41.9877V43.5376" stroke="black" stroke-width="3" stroke-linecap="round"/>
<path d="M88.3325 42.551C88.3325 43.1465 88.2875 43.7528 88.6188 44.2419" stroke="black" stroke-width="3" stroke-linecap="round"/>
<path d="M91.7681 42.4104C92.2348 42.7584 92.8544 43.4382 93.3427 43.6786" stroke="black" stroke-width="3" stroke-linecap="round"/>
<path d="M82.7489 19.4426C82.1576 20.1814 81.6194 20.8383 81.2061 21.6971C81.0095 22.1058 80.6017 22.809 80.6017 23.2471" stroke="black" stroke-width="3" stroke-linecap="round"/>
<path d="M86.0417 19.7246V23.2473" stroke="black" stroke-width="3" stroke-linecap="round"/>
<path d="M89.1912 19.8654C90.2616 20.2309 90.6508 20.6479 91.1635 21.5562C91.3114 21.8184 91.5925 22.7381 91.7679 22.8244" stroke="black" stroke-width="3" stroke-linecap="round"/>
<path d="M91.3884 68.1016L90.0329 69.4571C87.9871 71.503 84.5444 71.8347 82.5631 69.7264C80.3466 67.3678 81.06 64.0526 83.3486 61.7639L84.1996 60.9129C84.9195 60.193 85.3781 59.3844 85.8724 59.3333C86.294 58.0686 84.1252 56.8039 84.6675 52.3006C85.2865 47.1606 89.9973 45.0871 92.2753 44.6928C94.384 44.4456 97.3412 45.8322 98.5562 46.5564C101.402 47.7661 104.534 51.8529 105.745 53.7451C107.012 55.536 107.405 58.5678 107.442 59.8598C107.148 64.3428 103.238 66.8623 101.319 67.5617C98.3334 69.484 93.9072 66.8848 92.0674 65.3449C92.3391 66.3365 91.7279 67.5959 91.3884 68.1016Z" fill="white"/>
<path d="M91.3884 68.1016L92.0955 68.8087L92.1643 68.7399L92.2186 68.659L91.3884 68.1016ZM92.0674 65.3449L92.7092 64.5781C92.3739 64.2974 91.8952 64.2672 91.5272 64.5034C91.1593 64.7396 90.9874 65.1875 91.103 65.6092L92.0674 65.3449ZM101.319 67.5617L100.977 66.6222L100.872 66.6605L100.778 66.7209L101.319 67.5617ZM107.442 59.8598L108.44 59.9253L108.443 59.878L108.442 59.8306L107.442 59.8598ZM105.745 53.7451L104.903 54.284L104.915 54.3037L104.929 54.3227L105.745 53.7451ZM98.5562 46.5564L98.0442 47.4153L98.1025 47.4501L98.165 47.4767L98.5562 46.5564ZM92.2753 44.6928L92.1588 43.6996L92.1317 43.7028L92.1047 43.7075L92.2753 44.6928ZM84.6675 52.3006L85.6603 52.4201L84.6675 52.3006ZM85.8724 59.3333L85.9752 60.328L86.617 60.2617L86.8211 59.6495L85.8724 59.3333ZM82.5631 69.7264L81.8343 70.4112L82.5631 69.7264ZM90.74 70.1643L92.0955 68.8087L90.6813 67.3945L89.3258 68.75L90.74 70.1643ZM92.2186 68.659C92.4355 68.3359 92.7166 67.8107 92.9092 67.2113C93.0966 66.628 93.2417 65.8464 93.0319 65.0807L91.103 65.6092C91.1648 65.835 91.1402 66.1789 91.005 66.5996C90.875 67.0043 90.6808 67.3616 90.5581 67.5442L92.2186 68.659ZM91.4256 66.1118C92.4147 66.9396 94.0838 68.0443 95.9315 68.6949C97.7552 69.337 99.9828 69.6115 101.861 68.4026L100.778 66.7209C99.6699 67.4342 98.1915 67.3703 96.5957 66.8084C95.0238 66.2549 93.56 65.2901 92.7092 64.5781L91.4256 66.1118ZM101.662 68.5012C102.749 68.1048 104.336 67.2228 105.703 65.8301C107.081 64.4267 108.274 62.4619 108.44 59.9253L106.444 59.7943C106.317 61.7406 105.407 63.2771 104.276 64.4291C103.135 65.5918 101.808 66.3192 100.977 66.6222L101.662 68.5012ZM108.442 59.8306C108.421 59.1225 108.306 57.9766 108.03 56.7668C107.756 55.5714 107.305 54.2186 106.561 53.1674L104.929 54.3227C105.452 55.0626 105.831 56.1211 106.08 57.2123C106.326 58.2891 106.426 59.3051 106.443 59.889L108.442 59.8306ZM106.587 53.2062C105.955 52.2173 104.835 50.676 103.501 49.2196C102.189 47.7859 100.575 46.3281 98.9474 45.6361L98.165 47.4767C99.3828 47.9944 100.758 49.1848 102.026 50.57C103.273 51.9325 104.325 53.3807 104.903 54.284L106.587 53.2062ZM99.0682 45.6974C98.4091 45.3045 97.306 44.7473 96.0828 44.317C94.8833 43.895 93.4424 43.5492 92.1588 43.6996L92.3917 45.686C93.2169 45.5893 94.3089 45.8131 95.419 46.2037C96.5053 46.5858 97.4883 47.084 98.0442 47.4153L99.0682 45.6974ZM92.1047 43.7075C90.8225 43.9294 88.9167 44.6063 87.2313 45.9308C85.5261 47.271 84.0219 49.2982 83.6747 52.181L85.6603 52.4201C85.9322 50.1629 87.0928 48.5834 88.4672 47.5033C89.8615 46.4075 91.45 45.8505 92.4458 45.6782L92.1047 43.7075ZM83.6747 52.181C83.3798 54.6295 83.8245 56.2427 84.2983 57.4081C84.4122 57.688 84.5268 57.9399 84.6218 58.1508C84.721 58.3707 84.794 58.5354 84.8478 58.6809C84.9008 58.8244 84.9197 58.9097 84.9253 58.961C84.9298 59.0021 84.925 59.0133 84.9237 59.0171L86.8211 59.6495C87.0342 59.0103 86.8871 58.4294 86.7237 57.9875C86.6419 57.7661 86.5398 57.5388 86.445 57.3287C86.3462 57.1095 86.2481 56.8934 86.151 56.6548C85.7815 55.7458 85.4129 54.475 85.6603 52.4201L83.6747 52.181ZM85.7697 58.3386C85.3924 58.3776 85.0983 58.5523 84.8979 58.7049C84.6965 58.8583 84.5194 59.0441 84.3745 59.2065C84.0373 59.5843 83.8334 59.8649 83.4925 60.2058L84.9067 61.62C85.2857 61.241 85.6711 60.7574 85.8667 60.5382C85.9883 60.4019 86.0635 60.3311 86.1096 60.296C86.1567 60.2601 86.1053 60.3146 85.9752 60.328L85.7697 58.3386ZM83.4925 60.2058L82.6415 61.0568L84.0557 62.471L84.9067 61.62L83.4925 60.2058ZM82.6415 61.0568C80.1329 63.5654 79.1089 67.511 81.8343 70.4112L83.2918 69.0416C81.5843 67.2246 81.9871 64.5397 84.0557 62.471L82.6415 61.0568ZM89.3258 68.75C87.5803 70.4955 84.7972 70.6436 83.2918 69.0416L81.8343 70.4112C84.2915 73.0259 88.3938 72.5105 90.74 70.1643L89.3258 68.75Z" fill="black"/>
<path d="M92.9786 49.8181C93.3171 49.6838 94.0228 49.5736 94.3499 49.829C94.4691 49.922 94.6325 49.8848 94.7512 50.0036C94.8889 50.1412 94.9547 50.3204 95.0689 50.4346C95.2465 50.6122 95.2362 51.1504 95.1269 51.3492C94.9745 51.6263 94.6655 52.0473 95.1067 51.6061" stroke="black" stroke-width="2" stroke-linecap="round"/>
<path d="M100.35 57.1897C101.04 57.0859 101.687 56.9726 102.147 57.6324C102.559 58.2247 102.598 58.5123 102.078 59.0316" stroke="black" stroke-width="2" stroke-linecap="round"/>
<path d="M92.2543 52.155C92.1718 52.2374 91.6959 52.5857 91.7576 52.7669C91.7856 52.8492 92.0591 52.7502 92.1447 52.7509C92.2111 52.7514 92.5138 52.8345 92.5195 52.7856C92.5343 52.6595 92.523 52.4695 92.4527 52.3597C92.3147 52.1445 91.7219 52.643 91.8881 52.8092C92.0774 52.9986 92.6405 52.8416 92.257 52.4978C91.5414 51.8565 91.2062 53.2579 92.2291 52.9864C92.4886 52.9175 92.5536 52.5678 92.3415 52.3557C92.0033 52.0174 91.8418 52.3371 91.5722 52.6067" stroke="black" stroke-width="2" stroke-linecap="round"/>
<path d="M99.6249 59.4124C99.0269 60.0408 99.8967 60.5527 100.223 59.9599C100.429 59.5851 98.9313 59.399 99.5151 59.9829C99.7045 60.1722 99.8484 60.1103 100.029 59.9298C100.229 59.7297 99.8077 59.4274 99.6007 59.5582C99.4071 59.6805 99.2279 59.9145 99.2562 60.1522C99.2825 60.3729 99.9063 60.0525 100.001 59.9581C100.317 59.642 99.4344 59.2188 99.112 59.5797C98.8634 59.8581 99.6875 60.3863 100.001 60.0724C100.211 59.8627 99.9406 59.7281 99.7689 59.5564C99.5473 59.3348 99.4009 59.4992 99.2272 59.6949C98.8757 60.091 100.307 60.435 99.6276 59.7552" stroke="black" stroke-width="2" stroke-linecap="round"/>
<path d="M97.7645 55.3981C96.749 56.4137 96.0888 57.6497 95.0765 58.6621C94.6572 59.0813 94.348 59.2202 93.7673 59.2802C93.4143 59.3166 93.298 58.3007 93.1009 58.1037" stroke="black" stroke-width="2" stroke-linecap="round"/>
<path d="M89.8027 60.0204C89.3777 61.0913 90.0693 61.9193 91.1291 61.5735" stroke="black" stroke-width="2" stroke-linecap="round"/>
<path d="M90.5249 57.3331C90.444 57.368 89.7243 57.6826 89.7844 57.4984" stroke="black" stroke-width="2" stroke-linecap="round"/>
<path d="M92.074 58.4294L91.4513 59.0522" stroke="black" stroke-width="2" stroke-linecap="round"/>
<path d="M93.6881 60.4963C93.4489 60.7355 93.1872 60.9611 93.1238 61.2907" stroke="black" stroke-width="2" stroke-linecap="round"/>
<path d="M95.125 61.8202C95.1727 62.1475 95.1485 62.6696 95.2481 62.9623" stroke="black" stroke-width="2" stroke-linecap="round"/>
<path d="M100.729 48.9689C100.195 49.0281 99.7143 49.0758 99.2033 49.2548C98.9601 49.34 98.5137 49.4587 98.3377 49.6347" stroke="black" stroke-width="2" stroke-linecap="round"/>
<path d="M101.938 50.405L100.523 51.8203" stroke="black" stroke-width="2" stroke-linecap="round"/>
<path d="M103.147 51.7269C103.431 52.3039 103.419 52.6278 103.26 53.1987C103.215 53.3634 102.958 53.8459 102.994 53.951" stroke="black" stroke-width="2" stroke-linecap="round"/>
<path d="M77.4199 72.0979V79.6952C73.8535 81.1098 68.26 80.2846 65.9091 79.6952V72.0979C65.9091 70.9452 66.6188 69.7838 66.9736 69.3472C61.491 68.2469 59.6324 65.876 59.3885 64.8281C55.7689 60.2174 57.8803 54.7858 59.3885 52.6464C60.8789 50.7602 64.3565 49.5027 65.9091 49.1097C69.156 47.7999 74.9359 48.5639 77.4199 49.1097C79.8684 49.5289 82.6098 51.6421 83.6743 52.6464C87.0278 56.4712 85.9144 61.619 84.9385 63.7148C84.0869 67.6444 78.7059 69.0294 76.1765 69.3472C77.0196 70.2941 77.2868 71.4212 77.4199 72.0979Z" fill="white" stroke="black" stroke-width="2"/>
<path d="M64.9427 55.5355C65.0871 55.2012 65.5082 54.6242 65.9201 54.5735C66.0701 54.5551 66.1594 54.4132 66.3273 54.4132C66.522 54.4132 66.6952 54.4934 66.8567 54.4934C67.1079 54.4934 67.4812 54.8812 67.5444 55.0991C67.6326 55.4028 67.7118 55.9189 67.7118 55.295" stroke="black" stroke-width="2" stroke-linecap="round"/>
<path d="M75.3677 55.5357C75.7827 54.974 76.1598 54.4365 76.9513 54.5781C77.6618 54.7053 77.8924 54.8814 77.8924 55.6158" stroke="black" stroke-width="2" stroke-linecap="round"/>
<path d="M66.0832 57.7001C66.0832 57.8167 65.9929 58.3994 66.1646 58.4839C66.2426 58.5223 66.366 58.2589 66.427 58.1989C66.4743 58.1523 66.7471 57.997 66.7166 57.9584C66.6379 57.8588 66.4956 57.7324 66.3682 57.7045C66.1184 57.6499 66.0518 58.4216 66.2868 58.4216C66.5546 58.4216 66.8417 57.9125 66.3275 57.9406C65.368 57.993 66.1219 59.221 66.6533 58.3058C66.7881 58.0735 66.5867 57.7802 66.2868 57.7802C65.8084 57.7802 65.9203 58.1205 65.9203 58.5017" stroke="black" stroke-width="2" stroke-linecap="round"/>
<path d="M76.4267 57.62C76.4482 58.4871 77.4252 58.2341 77.2366 57.5844C77.1173 57.1735 75.9267 58.101 76.7525 58.101C77.0203 58.101 77.0782 57.9555 77.0782 57.7001C77.0782 57.4172 76.5666 57.5013 76.5127 57.7402C76.4622 57.9636 76.501 58.2557 76.6891 58.4038C76.8637 58.5413 77.0782 57.8736 77.0782 57.7402C77.0782 57.2932 76.1551 57.6178 76.1824 58.101C76.2034 58.4737 77.1597 58.2644 77.1597 57.8204C77.1597 57.5238 76.8731 57.62 76.6303 57.62C76.3169 57.62 76.3296 57.8398 76.3452 58.101C76.3768 58.6296 77.6324 57.8605 76.671 57.8605" stroke="black" stroke-width="2" stroke-linecap="round"/>
<path d="M72.2728 56.0968C72.2728 57.533 72.6801 58.8739 72.6801 60.3055C72.6801 60.8985 72.5596 61.2153 72.1914 61.6684C71.9676 61.9437 71.167 61.3076 70.8883 61.3076" stroke="black" stroke-width="2" stroke-linecap="round"/>
<path d="M69.911 64.9954C70.3677 66.0531 71.4422 66.1496 71.9471 65.1557" stroke="black" stroke-width="2" stroke-linecap="round"/>
<path d="M68.5217 62.5846C68.4892 62.6665 68.2027 63.3978 68.115 63.2251" stroke="black" stroke-width="2" stroke-linecap="round"/>
<path d="M70.3922 62.2643V63.1449" stroke="black" stroke-width="2" stroke-linecap="round"/>
<path d="M72.9953 62.5846C72.9953 62.9229 72.9698 63.2674 73.158 63.5453" stroke="black" stroke-width="2" stroke-linecap="round"/>
<path d="M74.9474 62.5044C75.2126 62.7021 75.5646 63.0884 75.8421 63.2249" stroke="black" stroke-width="2" stroke-linecap="round"/>
<path d="M69.8227 49.4547C69.4867 49.8745 69.1809 50.2477 68.9461 50.7357C68.8343 50.9679 68.6027 51.3674 68.6027 51.6163" stroke="black" stroke-width="2" stroke-linecap="round"/>
<path d="M71.6936 49.6147V51.6163" stroke="black" stroke-width="2" stroke-linecap="round"/>
<path d="M73.483 49.6949C74.0913 49.9027 74.3124 50.1396 74.6037 50.6557C74.6877 50.8046 74.8474 51.3272 74.9471 51.3762" stroke="black" stroke-width="2" stroke-linecap="round"/>
<path d="M11.0534 11.2513C11.0534 25.1685 11.0534 39.0856 11.0534 53.0027C11.0534 55.3016 11.1872 57.5508 10.5852 59.7874C10.2473 61.0429 10 62.5243 10 63.832C10 66.5014 11.0534 69.0853 11.0534 71.7764C11.0534 73.5273 11.4025 75.817 10.9218 77.5317C10.1732 80.2017 14.0502 79.7961 15.911 79.8657C19.6748 80.0064 23.8989 80.2935 27.6304 79.7497C30.6188 79.3143 33.8348 78.9482 36.7602 79.8947C46.095 82.9149 55.1857 78.6788 64.6324 79.6773C68.981 80.1368 73.2783 79.6193 77.6248 79.6193C82.0372 79.6193 86.3208 80.4377 90.7343 80.4021C94.187 80.3743 97.8073 79.4564 101.21 78.8944C103.496 78.517 106.137 79.3583 108.496 79.3583C109.149 79.3583 110.34 79.671 110.34 78.8364C110.34 73.1583 110.106 67.4301 110.398 61.7589C110.833 53.33 111.393 44.8925 111.393 36.4617C111.393 31.8487 111.25 27.2126 111.408 22.6025C111.496 20.0185 111.92 17.5234 111.92 14.9191C111.92 14.1837 112.109 13.1469 111.905 12.4401C111.842 12.2192 110.085 12.1207 109.813 12.0342C108.531 11.6267 107.356 11.2513 105.995 11.2513C104.802 11.2513 103.565 11.3447 102.381 11.1934C100.906 11.0048 99.7356 10.4648 98.3278 10.1061C95.0948 9.28234 91.2746 10.2076 87.9836 10.2076C83.8928 10.2076 79.9113 11.2183 75.8106 11.2513C72.0167 11.2819 67.4199 11.916 63.7838 10.7874C59.8382 9.56279 56.5903 8.60371 52.4009 9.16377C49.9126 9.49642 47.4013 9.67548 44.9244 10.0771C43.3933 10.3253 41.9622 10.7295 40.4034 10.7295C35.9657 10.7295 31.6387 9.94661 27.1769 9.94661C23.7972 9.94661 20.3501 10.6965 17.0229 11.2513C14.842 11.6151 12.8942 11.2513 10.7901 11.2513" stroke="black" stroke-width="3" stroke-linecap="round"/>
<path d="M3.21868 4.6891C3.21868 21.3123 3.21868 37.9356 3.21868 54.5588C3.21868 57.3047 3.37339 59.9913 2.67705 62.6627C2.28613 64.1624 2 65.9318 2 67.4938C2 70.6823 3.21868 73.7685 3.21868 76.9829C3.21868 79.0742 3.62246 81.8092 3.06635 83.8573C2.2004 87.0465 6.68548 86.5621 8.83816 86.6452C13.1924 86.8133 18.0791 87.1561 22.396 86.5066C25.8531 85.9865 29.5736 85.5493 32.9579 86.6798C43.757 90.2872 54.2736 85.2275 65.2022 86.4201C70.2329 86.969 75.2043 86.3508 80.2327 86.3508C85.3371 86.3508 90.2927 87.3283 95.3985 87.2859C99.3928 87.2526 103.581 86.1562 107.518 85.485C110.162 85.0341 113.217 86.0391 115.947 86.0391C116.702 86.0391 118.08 86.4126 118.08 85.4157C118.08 78.6335 117.809 71.7915 118.147 65.0176C118.65 54.9497 119.298 44.8716 119.298 34.8014C119.298 29.2915 119.133 23.7539 119.315 18.2474C119.417 15.161 119.908 12.1807 119.908 9.07002C119.908 8.19159 120.126 6.95328 119.891 6.10901C119.817 5.84519 117.785 5.72747 117.47 5.62416C115.987 5.13744 114.627 4.6891 113.052 4.6891C111.673 4.6891 110.242 4.80066 108.872 4.61984C107.165 4.39461 105.812 3.74957 104.183 3.32115C100.443 2.33724 96.0236 3.44236 92.2164 3.44236C87.4838 3.44236 82.8777 4.64965 78.1338 4.6891C73.7448 4.72561 68.427 5.48302 64.2205 4.135C59.656 2.67222 55.8986 1.52666 51.052 2.19562C48.1734 2.59294 45.2682 2.80683 42.4027 3.28652C40.6314 3.58304 38.9759 4.06573 37.1725 4.06573C32.0387 4.06573 27.033 3.13068 21.8713 3.13068C17.9615 3.13068 13.9736 4.02632 10.1246 4.6891C7.60152 5.12355 5.34822 4.6891 2.91401 4.6891" stroke="black" stroke-width="3" stroke-linecap="round"/>
</svg>
