<svg width="341" height="729" viewBox="0 0 341 729" fill="none" xmlns="http://www.w3.org/2000/svg">
<path d="M166.221 80.5294C171.226 82.3587 180.971 84.6192 186.28 84.5319C179.846 81.0265 175.25 75.0421 175.163 68.3347C175.142 66.731 174.367 64.3786 176.425 63.6768C177.909 63.1706 179.301 62.5652 180.748 61.9915C182.332 61.364 184.958 60.8491 186.31 61.4668C188.742 62.577 192.329 61.7576 194.549 60.0989C195.993 59.0203 200.826 60.7346 200.826 59.073C200.826 58.5363 205.534 58.3891 205.926 51.5497C206.408 43.1573 207.064 35.7779 207.064 27.6544C207.064 24.314 207.304 20.896 207.011 17.5662C206.717 14.2411 204.192 8.37477 199.975 7.73555C197.285 7.32769 193.597 8.18394 190.953 8.2739C186.293 8.43239 179.748 8.47274 175.271 8.41434C160.48 8.22139 145.705 7.42613 131.017 5.88645C117.828 4.50388 103.963 1.05499 90.6303 3.1245C71.8284 6.04303 52.8253 2.04572 33.8901 2.00099C25.8812 1.98207 18.4543 2.19429 11.7097 6.21414C8.87885 7.90131 6.31088 9.85726 3.92233 11.9955C-0.309826 15.7842 3.61567 24.3592 4.64736 28.6843C6.11423 34.8337 7.69739 47.8233 9.53458 53.8976C10.1233 55.844 10.7367 57.6198 12.005 59.3045C14.1358 62.1347 17.4533 63.7646 20.8128 65.3433C25.711 67.6452 30.8387 70.2923 36.4949 70.6332C44.8994 71.1397 55.0939 66.6494 63.5138 66.6494C72.4919 66.6494 79.1737 65.0167 87.9718 66.6494C102.883 69.4166 117.659 72.7351 132.95 72.7351C136.772 72.7351 140.658 72.9135 144.47 72.6882C148.651 72.4412 152.441 70.6146 156.581 70.3008C159.024 70.1156 158.292 72.9235 159.105 74.4203C160.826 77.5869 162.39 79.1289 166.221 80.5294Z" fill="#FFDD64" fill-opacity="0.5" stroke="#FFDD64" stroke-width="2.35812" stroke-linecap="round"/>
<path d="M166.221 199.366C171.226 201.195 180.971 203.456 186.28 203.368C179.846 199.863 175.25 193.878 175.163 187.171C175.142 185.567 174.367 183.215 176.425 182.513C177.909 182.007 179.301 181.402 180.748 180.828C182.332 180.2 184.958 179.686 186.31 180.303C188.742 181.413 192.329 180.594 194.549 178.935C195.993 177.857 200.826 179.571 200.826 177.909C200.826 177.373 205.534 177.226 205.926 170.386C206.408 161.994 207.064 154.614 207.064 146.491C207.064 143.15 207.304 139.732 207.011 136.403C206.717 133.078 204.192 127.211 199.975 126.572C197.285 126.164 193.597 127.02 190.953 127.11C186.293 127.269 179.748 127.309 175.271 127.251C160.48 127.058 145.705 126.263 131.017 124.723C117.828 123.34 103.962 119.891 90.6303 121.961C71.8284 124.879 52.8253 120.882 33.8901 120.837C25.8812 120.818 18.4543 121.031 11.7097 125.051C8.87885 126.738 6.31088 128.694 3.92233 130.832C-0.309826 134.621 3.61567 143.196 4.64736 147.521C6.11423 153.67 7.69739 166.66 9.53458 172.734C10.1233 174.68 10.7367 176.456 12.005 178.141C14.1358 180.971 17.4533 182.601 20.8128 184.18C25.711 186.482 30.8387 189.129 36.4949 189.47C44.8994 189.976 55.0939 185.486 63.5138 185.486C72.4919 185.486 79.1737 183.853 87.9718 185.486C102.883 188.253 117.659 191.571 132.95 191.571C136.772 191.571 140.658 191.75 144.47 191.525C148.651 191.278 152.441 189.451 156.581 189.137C159.024 188.952 158.292 191.76 159.105 193.257C160.826 196.423 162.39 197.965 166.221 199.366Z" fill="#FFDD64" fill-opacity="0.5" stroke="#FFDD64" stroke-width="2.35812" stroke-linecap="round"/>
<path d="M166.221 318.202C171.226 320.032 180.971 322.292 186.28 322.205C179.846 318.699 175.25 312.715 175.163 306.008C175.142 304.404 174.367 302.051 176.425 301.35C177.909 300.843 179.301 300.238 180.748 299.664C182.332 299.037 184.958 298.522 186.31 299.14C188.742 300.25 192.329 299.43 194.549 297.772C195.993 296.693 200.826 298.407 200.826 296.746C200.826 296.209 205.534 296.062 205.926 289.223C206.408 280.83 207.064 273.451 207.064 265.327C207.064 261.987 207.304 258.569 207.011 255.239C206.717 251.914 204.192 246.048 199.975 245.408C197.285 245.001 193.597 245.857 190.953 245.947C186.293 246.105 179.748 246.146 175.271 246.087C160.48 245.894 145.705 245.099 131.017 243.559C117.828 242.177 103.962 238.728 90.6303 240.797C71.8284 243.716 52.8253 239.719 33.8901 239.674C25.8812 239.655 18.4543 239.867 11.7097 243.887C8.87885 245.574 6.31088 247.53 3.92233 249.668C-0.309826 253.457 3.61567 262.032 4.64736 266.357C6.11423 272.507 7.69739 285.496 9.53458 291.57C10.1233 293.517 10.7367 295.293 12.005 296.977C14.1358 299.808 17.4533 301.437 20.8128 303.016C25.711 305.318 30.8387 307.965 36.4949 308.306C44.8994 308.813 55.0939 304.322 63.5138 304.322C72.4919 304.322 79.1737 302.69 87.9718 304.322C102.883 307.089 117.659 310.408 132.95 310.408C136.772 310.408 140.658 310.586 144.47 310.361C148.651 310.114 152.441 308.287 156.581 307.974C159.024 307.788 158.292 310.596 159.105 312.093C160.826 315.26 162.39 316.802 166.221 318.202Z" fill="#FFDD64" fill-opacity="0.5" stroke="#FFDD64" stroke-width="2.35812" stroke-linecap="round"/>
<path d="M166.221 438.466C171.226 440.296 180.971 442.556 186.28 442.469C179.846 438.964 175.25 432.979 175.163 426.272C175.142 424.668 174.367 422.316 176.425 421.614C177.909 421.108 179.301 420.502 180.748 419.929C182.332 419.301 184.958 418.786 186.31 419.404C188.742 420.514 192.329 419.695 194.549 418.036C195.993 416.957 200.826 418.672 200.826 417.01C200.826 416.473 205.534 416.326 205.926 409.487C206.408 401.094 207.064 393.715 207.064 385.591C207.064 382.251 207.304 378.833 207.011 375.503C206.717 372.178 204.192 366.312 199.975 365.673C197.285 365.265 193.597 366.121 190.953 366.211C186.293 366.369 179.748 366.41 175.271 366.351C160.48 366.158 145.705 365.363 131.017 363.823C117.828 362.441 103.962 358.992 90.6303 361.062C71.8284 363.98 52.8253 359.983 33.8901 359.938C25.8812 359.919 18.4543 360.131 11.7097 364.151C8.87885 365.838 6.31088 367.794 3.92233 369.933C-0.309826 373.721 3.61567 382.296 4.64736 386.621C6.11423 392.771 7.69739 405.76 9.53458 411.835C10.1233 413.781 10.7367 415.557 12.005 417.241C14.1358 420.072 17.4533 421.702 20.8128 423.28C25.711 425.582 30.8387 428.229 36.4949 428.57C44.8994 429.077 55.0939 424.586 63.5138 424.586C72.4919 424.586 79.1737 422.954 87.9718 424.586C102.883 427.354 117.659 430.672 132.95 430.672C136.772 430.672 140.658 430.851 144.47 430.625C148.651 430.378 152.441 428.552 156.581 428.238C159.024 428.053 158.292 430.861 159.105 432.357C160.826 435.524 162.39 437.066 166.221 438.466Z" fill="#FFDD64" fill-opacity="0.5" stroke="#FFDD64" stroke-width="2.35812" stroke-linecap="round"/>
<path d="M166.221 557.731C171.226 559.56 180.971 561.821 186.28 561.734C179.846 558.228 175.25 552.244 175.163 545.536C175.142 543.933 174.367 541.58 176.425 540.878C177.909 540.372 179.301 539.767 180.748 539.193C182.332 538.566 184.958 538.051 186.31 538.668C188.742 539.779 192.329 538.959 194.549 537.301C195.993 536.222 200.826 537.936 200.826 536.275C200.826 535.738 205.534 535.591 205.926 528.751C206.408 520.359 207.064 512.98 207.064 504.856C207.064 501.516 207.304 498.098 207.011 494.768C206.717 491.443 204.192 485.576 199.975 484.937C197.285 484.529 193.597 485.386 190.953 485.476C186.293 485.634 179.748 485.674 175.271 485.616C160.48 485.423 145.705 484.628 131.017 483.088C117.828 481.706 103.962 478.257 90.6303 480.326C71.8284 483.245 52.8253 479.247 33.8901 479.203C25.8812 479.184 18.4543 479.396 11.7097 483.416C8.87885 485.103 6.31088 487.059 3.92233 489.197C-0.309826 492.986 3.61567 501.561 4.64736 505.886C6.11423 512.035 7.69739 525.025 9.53458 531.099C10.1233 533.046 10.7367 534.821 12.005 536.506C14.1358 539.336 17.4533 540.966 20.8128 542.545C25.711 544.847 30.8387 547.494 36.4949 547.835C44.8994 548.341 55.0939 543.851 63.5138 543.851C72.4919 543.851 79.1737 542.218 87.9718 543.851C102.883 546.618 117.659 549.937 132.95 549.937C136.772 549.937 140.658 550.115 144.47 549.89C148.651 549.643 152.441 547.816 156.581 547.502C159.024 547.317 158.292 550.125 159.105 551.622C160.826 554.789 162.39 556.331 166.221 557.731Z" fill="#FFDD64" fill-opacity="0.5" stroke="#FFDD64" stroke-width="2.35812" stroke-linecap="round"/>
<path d="M166.221 670.995C171.226 672.825 180.971 675.085 186.28 674.998C179.846 671.492 175.25 665.508 175.163 658.8C175.142 657.197 174.367 654.844 176.425 654.143C177.909 653.636 179.301 653.031 180.748 652.457C182.332 651.83 184.958 651.315 186.31 651.933C188.742 653.043 192.329 652.223 194.549 650.565C195.993 649.486 200.826 651.2 200.826 649.539C200.826 649.002 205.534 648.855 205.926 642.016C206.408 633.623 207.064 626.244 207.064 618.12C207.064 614.78 207.304 611.362 207.011 608.032C206.717 604.707 204.192 598.841 199.975 598.201C197.285 597.794 193.597 598.65 190.953 598.74C186.293 598.898 179.748 598.939 175.271 598.88C160.48 598.687 145.705 597.892 131.017 596.352C117.828 594.97 103.962 591.521 90.6303 593.59C71.8284 596.509 52.8253 592.512 33.8901 592.467C25.8812 592.448 18.4543 592.66 11.7097 596.68C8.87885 598.367 6.31088 600.323 3.92233 602.461C-0.309826 606.25 3.61567 614.825 4.64736 619.15C6.11423 625.3 7.69739 638.289 9.53458 644.363C10.1233 646.31 10.7367 648.086 12.005 649.77C14.1358 652.601 17.4533 654.23 20.8128 655.809C25.711 658.111 30.8387 660.758 36.4949 661.099C44.8994 661.606 55.0939 657.115 63.5138 657.115C72.4919 657.115 79.1737 655.482 87.9718 657.115C102.883 659.882 117.659 663.201 132.95 663.201C136.772 663.201 140.658 663.379 144.47 663.154C148.651 662.907 152.441 661.08 156.581 660.767C159.024 660.581 158.292 663.389 159.105 664.886C160.826 668.053 162.39 669.595 166.221 670.995Z" fill="#FFDD64" fill-opacity="0.5" stroke="#FFDD64" stroke-width="2.35812" stroke-linecap="round"/>
<path d="M298.763 686.131C302.744 688.436 304.787 694.425 305.311 697.131V723.999C290.406 728.412 271.993 727.455 260.001 724.108V706.176C259.759 706.274 259.544 706.364 259.449 706.416C258.723 706.811 257.789 707.319 256.946 707.649C256.049 708 255.153 708.33 254.286 708.649L254.221 708.673C253.369 708.986 252.545 709.29 251.73 709.607C249.679 710.404 246.798 711.272 244.24 711.272H238.679C236.337 711.272 234.115 710.7 232.244 710.218C231.968 710.147 231.7 710.078 231.44 710.013C229.039 709.413 226.036 708.641 223.488 707.434C222.656 707.04 221.853 706.595 221.135 706.196L221.135 706.196L220.937 706.087C220.139 705.645 219.435 705.263 218.728 704.948C217.022 704.19 215.678 703.121 214.542 702.05C213.918 701.461 213.211 700.72 212.57 700.048C212.177 699.636 211.809 699.251 211.499 698.94C211.376 698.817 211.283 698.702 211.225 698.627C211.164 698.546 211.112 698.472 211.073 698.413C211.063 698.397 211.053 698.382 211.043 698.367C210.918 698.231 210.796 698.08 210.682 697.911C210.627 697.846 210.548 697.753 210.47 697.656C210.4 697.569 210.248 697.379 210.117 697.169L210.113 697.163C210.074 697.101 209.863 696.767 209.756 696.315C209.713 696.138 209.71 694.569 210.179 693.686C210.179 693.557 210.185 693.297 210.257 692.991C210.302 692.796 210.511 691.929 211.394 691.345C212.524 690.597 213.646 690.968 214.102 691.204C214.524 691.423 214.789 691.703 214.878 691.799C215.183 692.129 215.433 692.575 215.515 692.722L215.531 692.75C215.582 692.84 215.627 692.92 215.668 692.992C215.746 693.131 215.81 693.245 215.883 693.367C215.912 693.416 215.934 693.451 215.95 693.475C216.268 693.783 216.592 694.039 217.027 694.383L217.027 694.383L217.028 694.383C217.121 694.457 217.22 694.535 217.324 694.618C217.444 694.655 217.617 694.694 217.906 694.753L218.04 694.779C218.292 694.829 218.629 694.896 218.941 694.975C219.312 695.069 219.833 695.223 220.344 695.505C220.594 695.643 221.011 695.767 221.838 695.936C221.925 695.954 222.019 695.973 222.119 695.993C222.795 696.127 223.747 696.316 224.592 696.645C224.871 696.753 225.148 696.862 225.423 696.97C228.288 698.092 230.883 699.109 233.271 699.109C234.232 699.109 235.153 699.225 235.897 699.319L235.958 699.326C236.765 699.428 237.385 699.502 237.99 699.502C238.766 699.502 239.455 699.64 239.911 699.733L239.958 699.742L239.958 699.742C240.451 699.843 240.672 699.888 240.89 699.9C241.976 699.96 242.999 699.941 244.116 699.919H244.116C244.725 699.908 245.362 699.896 246.053 699.896C246.463 699.896 246.935 699.777 247.831 699.512L247.95 699.477C248.706 699.252 249.851 698.912 251.067 698.912C252.109 698.912 253.597 698.324 255.056 697.49C256.902 696.435 258.652 695.371 260.346 694.187C261.136 690.661 263.095 687.503 264.192 686.131C242.611 681.731 235.295 672.25 234.334 668.06C220.087 649.622 228.398 627.901 234.334 619.346C240.201 611.803 253.89 606.774 260.001 605.203C272.782 599.965 295.533 603.02 305.311 605.203C314.949 606.879 325.739 615.33 329.93 619.346C343.13 634.641 338.747 655.227 334.906 663.607C331.553 679.322 309.414 685.171 298.763 686.131Z" fill="#FF0000"/>
<path d="M305.311 697.131H306.561V697.011L306.538 696.894L305.311 697.131ZM298.763 686.131L298.651 684.886L294.729 685.24L298.137 687.213L298.763 686.131ZM334.906 663.607L333.769 663.087L333.712 663.212L333.683 663.347L334.906 663.607ZM329.93 619.346L330.876 618.529L330.837 618.484L330.794 618.443L329.93 619.346ZM305.311 605.203L305.038 606.423L305.067 606.429L305.096 606.434L305.311 605.203ZM260.001 605.203L260.312 606.413L260.396 606.392L260.475 606.359L260.001 605.203ZM234.334 619.346L233.348 618.578L233.327 618.605L233.307 618.633L234.334 619.346ZM234.334 668.06L235.553 667.781L235.491 667.513L235.323 667.296L234.334 668.06ZM264.192 686.131L265.168 686.912L266.445 685.315L264.441 684.906L264.192 686.131ZM260.001 724.108H258.751V725.056L259.665 725.312L260.001 724.108ZM305.311 723.999L305.665 725.198L306.561 724.933V723.999H305.311ZM215.95 693.475L214.901 694.155L214.978 694.275L215.081 694.374L215.95 693.475ZM215.883 693.367L214.811 694.011L214.811 694.011L215.883 693.367ZM215.668 692.992L216.758 692.381L216.758 692.381L215.668 692.992ZM215.531 692.75L214.442 693.363L214.444 693.367L215.531 692.75ZM215.515 692.722L214.425 693.334L214.426 693.335L215.515 692.722ZM214.878 691.799L215.796 690.951L215.796 690.951L214.878 691.799ZM214.102 691.204L213.527 692.314L213.527 692.314L214.102 691.204ZM211.394 691.345L210.704 690.303H210.704L211.394 691.345ZM210.257 692.991L209.039 692.707L209.039 692.707L210.257 692.991ZM210.179 693.686L211.283 694.273L211.429 693.998V693.686H210.179ZM255.056 697.49L255.676 698.576L255.056 697.49ZM247.95 699.477L248.306 700.675L248.306 700.675L247.95 699.477ZM247.831 699.512L248.185 700.711L248.186 700.711L247.831 699.512ZM244.116 699.919V701.169H244.128L244.14 701.169L244.116 699.919ZM244.116 699.919V698.669H244.104L244.092 698.67L244.116 699.919ZM240.89 699.9L240.82 701.148H240.82L240.89 699.9ZM239.958 699.742L240.207 698.517L240.19 698.514L240.172 698.511L239.958 699.742ZM239.958 699.742L239.709 700.967L239.726 700.971L239.744 700.974L239.958 699.742ZM239.911 699.733L239.662 700.958L239.662 700.958L239.911 699.733ZM235.958 699.326L235.802 700.567L235.802 700.567L235.958 699.326ZM235.897 699.319L236.053 698.079L236.053 698.078L235.897 699.319ZM225.423 696.97L225.879 695.806L225.879 695.806L225.423 696.97ZM224.592 696.645L225.045 695.48L225.045 695.48L224.592 696.645ZM222.119 695.993L222.363 694.767H222.363L222.119 695.993ZM221.838 695.936L222.088 694.712H222.088L221.838 695.936ZM220.344 695.505L219.74 696.599L219.74 696.599L220.344 695.505ZM218.941 694.975L218.634 696.187H218.634L218.941 694.975ZM218.04 694.779L217.796 696.005L217.797 696.005L218.04 694.779ZM217.906 694.753L217.66 695.978L217.663 695.979L217.906 694.753ZM217.324 694.618L216.547 695.597L216.733 695.745L216.96 695.814L217.324 694.618ZM217.028 694.383L217.802 693.402L217.795 693.397L217.028 694.383ZM217.027 694.383L217.795 693.396L217.772 693.378L217.748 693.361L217.027 694.383ZM217.027 694.383L216.252 695.364L216.279 695.384L216.306 695.404L217.027 694.383ZM256.946 707.649L256.49 706.485H256.49L256.946 707.649ZM259.449 706.416L258.851 705.318L258.851 705.318L259.449 706.416ZM254.286 708.649L254.718 709.822L254.718 709.822L254.286 708.649ZM254.221 708.673L253.789 707.5L253.789 707.5L254.221 708.673ZM251.73 709.607L252.183 710.772L251.73 709.607ZM232.244 710.218L232.556 709.008H232.556L232.244 710.218ZM231.44 710.013L231.137 711.226L231.137 711.226L231.44 710.013ZM223.488 707.434L224.023 706.305L224.023 706.305L223.488 707.434ZM221.135 706.196L221.815 705.148L221.779 705.124L221.741 705.103L221.135 706.196ZM221.135 706.196L220.455 707.245L220.491 707.269L220.529 707.29L221.135 706.196ZM220.937 706.087L221.543 704.993L221.543 704.993L220.937 706.087ZM218.728 704.948L219.236 703.806H219.236L218.728 704.948ZM214.542 702.05L213.685 702.96L213.685 702.96L214.542 702.05ZM212.57 700.048L211.665 700.91H211.665L212.57 700.048ZM211.499 698.94L210.615 699.824L210.615 699.824L211.499 698.94ZM211.225 698.627L210.233 699.387L210.233 699.387L211.225 698.627ZM211.073 698.413L210.033 699.106L210.033 699.106L211.073 698.413ZM211.043 698.367L212.091 697.686L212.034 697.598L211.963 697.521L211.043 698.367ZM210.682 697.911L211.718 697.211L211.679 697.154L211.635 697.101L210.682 697.911ZM210.47 697.656L211.443 696.871L211.443 696.871L210.47 697.656ZM210.117 697.169L211.179 696.509L211.175 696.503L210.117 697.169ZM210.113 697.163L211.171 696.497L211.17 696.495L210.113 697.163ZM209.756 696.315L210.971 696.025H210.971L209.756 696.315ZM260.346 694.187L261.062 695.211L261.459 694.934L261.565 694.46L260.346 694.187ZM260.001 706.176H261.251V704.322L259.532 705.017L260.001 706.176ZM306.538 696.894C306.256 695.438 305.58 693.153 304.449 690.917C303.328 688.7 301.684 686.378 299.389 685.05L298.137 687.213C299.823 688.189 301.191 690.014 302.218 692.045C303.234 694.055 303.841 696.118 304.083 697.369L306.538 696.894ZM298.875 687.376C304.315 686.886 312.667 685.154 320.118 681.526C327.545 677.911 334.334 672.279 336.128 663.868L333.683 663.347C332.125 670.65 326.168 675.8 319.024 679.278C311.905 682.744 303.862 684.416 298.651 684.886L298.875 687.376ZM336.042 664.128C338.033 659.785 340.134 652.362 340.058 644.058C339.982 635.737 337.716 626.455 330.876 618.529L328.983 620.162C335.343 627.532 337.486 636.19 337.558 644.081C337.631 651.989 335.62 659.049 333.769 663.087L336.042 664.128ZM330.794 618.443C328.643 616.381 324.834 613.213 320.335 610.343C315.853 607.483 310.582 604.851 305.525 603.971L305.096 606.434C309.677 607.231 314.621 609.662 318.991 612.451C323.344 615.229 327.026 618.294 329.065 620.248L330.794 618.443ZM305.583 603.983C300.631 602.877 292.426 601.557 283.838 601.171C275.289 600.787 266.179 601.32 259.527 604.046L260.475 606.359C266.604 603.847 275.26 603.289 283.726 603.669C292.153 604.047 300.212 605.346 305.038 606.423L305.583 603.983ZM259.69 603.992C256.56 604.797 251.53 606.475 246.529 608.911C241.554 611.334 236.458 614.579 233.348 618.578L235.321 620.113C238.077 616.569 242.759 613.528 247.623 611.159C252.461 608.802 257.331 607.18 260.312 606.413L259.69 603.992ZM233.307 618.633C230.236 623.059 226.59 630.82 225.524 639.85C224.455 648.911 225.983 659.296 233.345 668.824L235.323 667.296C228.439 658.386 226.998 648.692 228.007 640.143C229.019 631.565 232.496 624.188 235.361 620.058L233.307 618.633ZM233.116 668.339C233.686 670.825 235.998 674.473 240.786 678.021C245.607 681.594 253.009 685.127 263.942 687.356L264.441 684.906C253.793 682.736 246.747 679.328 242.275 676.013C237.769 672.673 235.943 669.485 235.553 667.781L233.116 668.339ZM259.665 725.312C271.847 728.712 290.502 729.687 305.665 725.198L304.956 722.801C290.311 727.137 272.14 726.199 260.337 722.904L259.665 725.312ZM216.999 692.796C216.991 692.784 216.976 692.761 216.954 692.724L214.811 694.011C214.847 694.071 214.877 694.118 214.901 694.155L216.999 692.796ZM216.954 692.724C216.892 692.621 216.837 692.523 216.758 692.381L214.577 693.603C214.654 693.74 214.727 693.87 214.811 694.011L216.954 692.724ZM216.758 692.381C216.717 692.309 216.671 692.226 216.618 692.132L214.444 693.367C214.494 693.454 214.536 693.531 214.577 693.603L216.758 692.381ZM216.62 692.136L216.605 692.109L214.426 693.335L214.442 693.363L216.62 692.136ZM216.605 692.11C216.528 691.973 216.214 691.404 215.796 690.951L213.959 692.647C214.045 692.74 214.14 692.869 214.231 693.01C214.319 693.145 214.386 693.265 214.425 693.334L216.605 692.11ZM215.796 690.951C215.672 690.817 215.29 690.412 214.676 690.094L213.527 692.314C213.758 692.434 213.906 692.589 213.959 692.647L215.796 690.951ZM214.676 690.094C214.031 689.76 212.377 689.196 210.704 690.303L212.084 692.388C212.671 691.999 213.261 692.176 213.527 692.314L214.676 690.094ZM210.704 690.303C209.408 691.161 209.103 692.432 209.039 692.707L211.474 693.275C211.501 693.16 211.615 692.698 212.084 692.388L210.704 690.303ZM209.039 692.707C208.937 693.146 208.929 693.514 208.929 693.686H211.429C211.429 693.6 211.433 693.448 211.474 693.275L209.039 692.707ZM254.436 696.405C253.004 697.223 251.76 697.662 251.067 697.662V700.162C252.458 700.162 254.191 699.425 255.676 698.576L254.436 696.405ZM251.067 697.662C249.646 697.662 248.338 698.058 247.595 698.279L248.306 700.675C249.074 700.447 250.057 700.162 251.067 700.162V697.662ZM247.595 698.278L247.476 698.314L248.186 700.711L248.306 700.675L247.595 698.278ZM247.477 698.313C246.541 698.59 246.249 698.646 246.053 698.646V701.146C246.677 701.146 247.329 700.964 248.185 700.711L247.477 698.313ZM246.053 698.646C245.348 698.646 244.7 698.658 244.092 698.67L244.14 701.169C244.75 701.158 245.376 701.146 246.053 701.146V698.646ZM244.116 698.669H244.116V701.169H244.116V698.669ZM244.092 698.67C242.968 698.691 241.991 698.709 240.959 698.652L240.82 701.148C241.961 701.211 243.029 701.19 244.139 701.169L244.092 698.67ZM240.959 698.652C240.854 698.646 240.739 698.626 240.207 698.517L239.709 700.967C240.163 701.06 240.49 701.129 240.82 701.148L240.959 698.652ZM240.172 698.511L240.172 698.511L239.744 700.974L239.744 700.974L240.172 698.511ZM240.207 698.517L240.16 698.508L239.662 700.958L239.709 700.967L240.207 698.517ZM240.16 698.508C239.701 698.414 238.904 698.252 237.99 698.252V700.752C238.629 700.752 239.21 700.866 239.662 700.958L240.16 698.508ZM237.99 698.252C237.476 698.252 236.935 698.189 236.114 698.086L235.802 700.567C236.596 700.666 237.293 700.752 237.99 700.752V698.252ZM236.114 698.086L236.053 698.079L235.741 700.559L235.802 700.567L236.114 698.086ZM236.053 698.078C235.316 697.986 234.321 697.859 233.271 697.859V700.359C234.143 700.359 234.989 700.464 235.741 700.559L236.053 698.078ZM233.271 697.859C231.169 697.859 228.815 696.956 225.879 695.806L224.967 698.133C227.761 699.228 230.597 700.359 233.271 700.359V697.859ZM225.879 695.806C225.605 695.698 225.326 695.589 225.045 695.48L224.139 697.81C224.417 697.918 224.692 698.026 224.967 698.133L225.879 695.806ZM225.045 695.48C224.082 695.105 223.023 694.898 222.363 694.767L221.876 697.219C222.567 697.356 223.413 697.527 224.139 697.81L225.045 695.48ZM222.363 694.767C222.262 694.747 222.171 694.729 222.088 694.712L221.587 697.161C221.678 697.18 221.776 697.199 221.876 697.219L222.363 694.767ZM222.088 694.712C221.688 694.63 221.415 694.564 221.224 694.509C221.029 694.452 220.96 694.417 220.947 694.41L219.74 696.599C220.18 696.842 220.779 696.995 221.587 697.161L222.088 694.712ZM220.947 694.41C220.299 694.053 219.659 693.867 219.248 693.763L218.634 696.187C218.965 696.27 219.367 696.393 219.74 696.599L220.947 694.41ZM219.248 693.763C218.899 693.675 218.53 693.602 218.283 693.553L217.797 696.005C218.054 696.056 218.359 696.117 218.634 696.187L219.248 693.763ZM218.284 693.553L218.15 693.527L217.663 695.979L217.796 696.005L218.284 693.553ZM218.153 693.527C217.864 693.469 217.744 693.439 217.688 693.422L216.96 695.814C217.144 695.87 217.371 695.92 217.66 695.978L218.153 693.527ZM218.102 693.64C217.996 693.555 217.896 693.476 217.802 693.402L216.253 695.364C216.346 695.438 216.444 695.515 216.547 695.597L218.102 693.64ZM217.795 693.397L217.795 693.396L216.259 695.369L216.26 695.369L217.795 693.397ZM217.748 693.361L217.748 693.361L216.306 695.404L216.306 695.404L217.748 693.361ZM217.802 693.402C217.357 693.05 217.084 692.834 216.819 692.577L215.081 694.374C215.452 694.733 215.826 695.027 216.252 695.364L217.802 693.402ZM257.401 708.813C258.331 708.45 259.336 707.9 260.046 707.514L258.851 705.318C258.11 705.722 257.246 706.189 256.49 706.485L257.401 708.813ZM254.718 709.822C255.584 709.504 256.491 709.169 257.401 708.813L256.49 706.485C255.607 706.831 254.723 707.156 253.855 707.476L254.718 709.822ZM254.653 709.846L254.718 709.822L253.855 707.476L253.789 707.5L254.653 709.846ZM252.183 710.772C252.986 710.459 253.799 710.16 254.653 709.846L253.789 707.5C252.939 707.813 252.105 708.12 251.277 708.442L252.183 710.772ZM244.24 712.522C247.031 712.522 250.086 711.587 252.183 710.772L251.277 708.442C249.273 709.221 246.564 710.022 244.24 710.022V712.522ZM231.933 711.429C233.785 711.906 236.155 712.522 238.679 712.522V710.022C236.518 710.022 234.445 709.494 232.556 709.008L231.933 711.429ZM231.137 711.226C231.392 711.29 231.656 711.358 231.933 711.429L232.556 709.008C232.281 708.937 232.008 708.867 231.743 708.801L231.137 711.226ZM222.953 708.564C225.63 709.832 228.75 710.629 231.137 711.226L231.743 708.801C229.328 708.197 226.443 707.451 224.023 706.305L222.953 708.564ZM220.455 707.245L220.455 707.245L221.815 705.148L221.815 705.148L220.455 707.245ZM220.529 707.29C221.242 707.685 222.079 708.15 222.953 708.564L224.023 706.305C223.233 705.931 222.464 705.504 221.741 705.103L220.529 707.29ZM220.331 707.18L220.529 707.29L221.741 705.103L221.543 704.993L220.331 707.18ZM218.221 706.091C218.871 706.38 219.531 706.737 220.331 707.18L221.543 704.993C220.747 704.552 219.999 704.145 219.236 703.806L218.221 706.091ZM213.685 702.96C214.876 704.082 216.337 705.253 218.221 706.091L219.236 703.806C217.708 703.127 216.481 702.16 215.4 701.141L213.685 702.96ZM211.665 700.91C212.3 701.577 213.031 702.343 213.685 702.96L215.4 701.141C214.804 700.579 214.122 699.864 213.474 699.185L211.665 700.91ZM210.615 699.824C210.913 700.122 211.27 700.496 211.665 700.91L213.474 699.185C213.085 698.777 212.706 698.379 212.383 698.056L210.615 699.824ZM210.233 699.387C210.311 699.488 210.44 699.649 210.615 699.824L212.383 698.056C212.311 697.985 212.255 697.916 212.218 697.867L210.233 699.387ZM210.033 699.106C210.082 699.18 210.15 699.279 210.233 699.387L212.218 697.867C212.178 697.814 212.143 697.764 212.114 697.72L210.033 699.106ZM209.994 699.047C210.007 699.066 210.019 699.086 210.033 699.106L212.114 697.72C212.106 697.709 212.099 697.697 212.091 697.686L209.994 699.047ZM209.647 698.611C209.798 698.835 209.959 699.034 210.122 699.212L211.963 697.521C211.878 697.428 211.795 697.325 211.718 697.211L209.647 698.611ZM209.498 698.441C209.586 698.551 209.673 698.654 209.73 698.72L211.635 697.101C211.581 697.038 211.511 696.955 211.443 696.871L209.498 698.441ZM209.056 697.83C209.23 698.11 209.424 698.35 209.498 698.441L211.443 696.871C211.376 696.788 211.266 696.649 211.179 696.509L209.056 697.83ZM209.055 697.829L209.06 697.835L211.175 696.503L211.171 696.497L209.055 697.829ZM208.54 696.606C208.696 697.26 208.995 697.733 209.056 697.83L211.17 696.495C211.153 696.468 211.031 696.274 210.971 696.025L208.54 696.606ZM209.076 693.1C208.723 693.762 208.589 694.574 208.532 695.141C208.501 695.444 208.489 695.724 208.488 695.947C208.487 696.058 208.489 696.162 208.494 696.253C208.497 696.31 208.505 696.459 208.54 696.606L210.971 696.025C210.996 696.127 210.994 696.188 210.991 696.122C210.989 696.09 210.987 696.036 210.988 695.961C210.989 695.812 210.997 695.611 211.019 695.39C211.068 694.907 211.166 694.494 211.283 694.273L209.076 693.1ZM238.679 712.522H244.24V710.022H238.679V712.522ZM306.561 723.999V697.131H304.061V723.999H306.561ZM259.629 693.163C257.979 694.317 256.264 695.36 254.436 696.405L255.676 698.576C257.54 697.51 259.326 696.426 261.062 695.211L259.629 693.163ZM263.215 685.35C262.034 686.827 259.968 690.156 259.126 693.914L261.565 694.46C262.304 691.167 264.155 688.178 265.168 686.912L263.215 685.35ZM260.046 707.514C260.035 707.52 260.039 707.517 260.066 707.505C260.09 707.494 260.122 707.48 260.164 707.462C260.247 707.426 260.351 707.383 260.47 707.335L259.532 705.017C259.316 705.105 259.023 705.224 258.851 705.318L260.046 707.514ZM258.751 706.176V724.108H261.251V706.176H258.751Z" fill="black"/>
<path d="M256.199 630.899C256.767 629.562 258.425 627.255 260.046 627.052C260.637 626.978 260.988 626.411 261.649 626.411C262.415 626.411 263.097 626.731 263.733 626.731C264.722 626.731 266.191 628.282 266.44 629.154C266.787 630.368 267.099 632.432 267.099 629.937" stroke="black" stroke-width="2.5" stroke-linecap="round"/>
<path d="M297.233 630.899C298.867 628.653 300.352 626.503 303.467 627.07C306.264 627.578 307.171 628.283 307.171 631.22" stroke="black" stroke-width="2.5" stroke-linecap="round"/>
<path d="M260.687 639.556C260.687 640.022 260.332 642.353 261.008 642.691C261.315 642.844 261.801 641.791 262.041 641.551C262.227 641.365 263.301 640.744 263.181 640.589C262.871 640.191 262.311 639.685 261.809 639.574C260.826 639.355 260.564 642.441 261.489 642.441C262.543 642.441 263.673 640.405 261.649 640.518C257.872 640.728 260.84 645.638 262.931 641.978C263.462 641.05 262.669 639.877 261.489 639.877C259.605 639.877 260.046 641.237 260.046 642.762" stroke="black" stroke-width="2.5" stroke-linecap="round"/>
<path d="M301.4 639.235C301.485 642.703 305.331 641.691 304.588 639.092C304.119 637.45 299.432 641.158 302.683 641.158C303.737 641.158 303.965 640.576 303.965 639.555C303.965 638.424 301.951 638.76 301.739 639.716C301.54 640.609 301.693 641.777 302.433 642.369C303.121 642.919 303.965 640.249 303.965 639.716C303.965 637.928 300.331 639.226 300.439 641.158C300.521 642.649 304.286 641.812 304.286 640.036C304.286 638.85 303.158 639.235 302.202 639.235C300.968 639.235 301.018 640.114 301.08 641.158C301.204 643.272 306.146 640.197 302.362 640.197" stroke="black" stroke-width="2.5" stroke-linecap="round"/>
<path d="M285.051 633.143C285.051 638.887 286.654 644.249 286.654 649.974C286.654 652.345 286.18 653.612 284.73 655.424C283.849 656.525 280.698 653.981 279.601 653.981" stroke="black" stroke-width="2.5" stroke-linecap="round"/>
<path d="M275.754 668.728C277.552 672.958 281.781 673.344 283.769 669.369" stroke="black" stroke-width="2.5" stroke-linecap="round"/>
<path d="M270.285 659.088C270.157 659.415 269.03 662.34 268.684 661.649" stroke="black" stroke-width="2.5" stroke-linecap="round"/>
<path d="M277.648 657.807V661.329" stroke="black" stroke-width="2.5" stroke-linecap="round"/>
<path d="M287.893 659.088C287.893 660.441 287.793 661.819 288.533 662.93" stroke="black" stroke-width="2.5" stroke-linecap="round"/>
<path d="M295.578 658.768C296.621 659.559 298.007 661.103 299.099 661.649" stroke="black" stroke-width="2.5" stroke-linecap="round"/>
<path d="M275.407 606.583C274.085 608.262 272.881 609.755 271.957 611.706C271.517 612.634 270.605 614.232 270.605 615.228" stroke="black" stroke-width="2.5" stroke-linecap="round"/>
<path d="M282.771 607.223V615.227" stroke="black" stroke-width="2.5" stroke-linecap="round"/>
<path d="M289.814 607.542C292.209 608.373 293.079 609.321 294.226 611.384C294.556 611.98 295.185 614.07 295.577 614.266" stroke="black" stroke-width="2.5" stroke-linecap="round"/>
<path d="M198.752 633.864L194.917 659.267L196.355 661.184L203.545 681.794L211.693 715.346L210.255 722.535L222.238 721.576L227.989 717.263L223.675 688.025L212.651 654.474L198.752 633.864Z" fill="white"/>
<path d="M212.792 654.999C214.084 661.958 215.445 668.838 218.226 675.374C219.835 679.156 220.876 682.815 221.982 686.746C222.823 689.733 223.703 692.771 224.28 695.822C225.155 700.454 224.522 705.083 226.249 709.599C227.215 712.126 227.639 714.719 228.291 717.327C228.704 718.976 228.465 718.888 226.832 719.222C224.252 719.75 222.24 722.247 219.703 722.247C217.016 722.247 214.33 722.247 211.643 722.247C210.056 722.247 211.113 719.501 211.315 718.493C211.696 716.591 211.484 714.743 211.005 712.898C209.816 708.315 208.92 703.361 207.358 698.902C206.323 695.947 206.418 692.768 205.735 689.735C205.249 687.575 205.123 684.565 203.93 682.627C203.089 681.262 202.801 679.525 202.143 678.053C201.767 677.21 200.701 675.961 200.648 675.009C200.559 673.4 200.11 671.723 199.663 670.162C198.493 666.066 198.135 661.416 196.126 657.623C195.555 656.546 196.979 656.943 198.022 656.712C199.85 656.306 201.751 656.33 203.602 656.056C205.269 655.809 207.18 655.375 208.853 655.327C209.728 655.302 210.786 655.499 211.643 655.309C213.539 654.888 210.464 652.452 210.002 651.7C207.954 648.365 206.785 644.789 205.115 641.276C204.039 639.012 202.554 637.363 201.159 635.335C200.966 635.054 199.81 633.385 199.499 633.385C199.314 633.385 197.122 647.958 196.892 649.076C196.122 652.81 195.396 657.071 195.396 660.904" stroke="#AAAAAA" stroke-width="5.50799" stroke-linecap="round"/>
<path d="M205.174 643.738C205.174 646.321 205.246 647.292 203.249 645.153C201.44 643.215 201.955 643.984 201.182 646.175C200.546 647.981 199.007 647.096 198.438 645.684C198.028 644.666 197.384 645.911 196.834 646.214" stroke="#AAAAAA" stroke-width="5.50799" stroke-linecap="round"/>
<path d="M204.891 656.366C204.891 660.825 206.871 664.911 207.739 669.255C208.493 673.023 207.922 677.64 209.383 681.189C210.29 683.392 210.85 685.705 211.644 687.942C212.725 690.988 214.009 693.908 215.197 696.911C215.909 698.711 216.1 700.426 216.4 702.313C216.68 704.07 217.556 705.611 218.044 707.304C218.786 709.874 219.519 712.476 219.703 715.143C219.864 717.471 221.01 719.462 221.01 721.896" stroke="#AAAAAA" stroke-width="5.50799" stroke-linecap="round"/>
<path d="M298.451 566.869C302.432 569.174 304.475 575.163 304.998 577.869V604.737C290.094 609.15 271.681 608.193 259.689 604.846V586.914C259.446 587.012 259.231 587.103 259.136 587.154C258.411 587.549 257.476 588.057 256.634 588.387C255.737 588.738 254.841 589.068 253.974 589.387L253.909 589.411C253.057 589.724 252.233 590.028 251.417 590.345C249.367 591.142 246.486 592.01 243.927 592.01H238.367C236.024 592.01 233.803 591.438 231.932 590.956C231.656 590.885 231.388 590.816 231.128 590.751C228.727 590.151 225.724 589.379 223.176 588.173C222.344 587.778 221.541 587.333 220.823 586.934L220.823 586.934L220.625 586.825C219.827 586.383 219.123 586.001 218.416 585.686C216.71 584.928 215.366 583.859 214.23 582.788C213.606 582.199 212.899 581.459 212.257 580.786C211.865 580.374 211.497 579.989 211.187 579.678C211.063 579.555 210.971 579.44 210.913 579.365C210.852 579.285 210.8 579.21 210.761 579.151C210.751 579.135 210.74 579.12 210.73 579.105C210.606 578.969 210.484 578.818 210.37 578.649C210.315 578.584 210.236 578.491 210.158 578.394C210.088 578.307 209.936 578.117 209.805 577.907L209.801 577.901C209.762 577.839 209.551 577.505 209.443 577.053C209.401 576.876 209.398 575.307 209.867 574.425C209.867 574.295 209.873 574.035 209.944 573.729C209.99 573.534 210.199 572.667 211.082 572.083C212.212 571.335 213.334 571.706 213.79 571.942C214.212 572.161 214.477 572.441 214.566 572.537C214.87 572.867 215.121 573.313 215.203 573.46L215.219 573.488C215.27 573.578 215.315 573.658 215.355 573.73C215.433 573.869 215.497 573.984 215.57 574.105C215.6 574.154 215.622 574.189 215.638 574.214C215.956 574.521 216.279 574.777 216.715 575.121L216.715 575.121L216.715 575.121C216.809 575.195 216.907 575.273 217.012 575.356C217.132 575.393 217.305 575.432 217.594 575.491L217.728 575.517C217.98 575.567 218.317 575.634 218.629 575.713C219 575.807 219.521 575.961 220.031 576.243C220.282 576.381 220.699 576.505 221.525 576.674C221.612 576.692 221.707 576.711 221.807 576.731C222.483 576.865 223.435 577.054 224.28 577.383C224.559 577.492 224.836 577.6 225.111 577.708C227.976 578.83 230.571 579.847 232.959 579.847C233.92 579.847 234.84 579.963 235.585 580.057L235.646 580.064C236.453 580.166 237.073 580.24 237.678 580.24C238.454 580.24 239.143 580.378 239.599 580.471L239.646 580.48L239.646 580.48C240.139 580.581 240.36 580.626 240.578 580.638C241.664 580.698 242.687 580.679 243.804 580.657H243.804C244.413 580.646 245.05 580.634 245.741 580.634C246.151 580.634 246.623 580.515 247.519 580.25L247.638 580.215C248.394 579.991 249.539 579.65 250.755 579.65C251.797 579.65 253.285 579.062 254.744 578.228C256.59 577.173 258.34 576.109 260.034 574.925C260.824 571.399 262.782 568.241 263.879 566.869C242.298 562.469 234.983 552.988 234.022 548.798C219.775 530.36 228.086 508.639 234.022 500.084C239.889 492.541 253.578 487.512 259.689 485.941C272.47 480.703 295.221 483.758 304.998 485.941C314.636 487.617 325.427 496.068 329.617 500.084C342.817 515.379 338.435 535.965 334.594 544.346C331.241 560.06 309.102 565.909 298.451 566.869Z" fill="#8000FF"/>
<path d="M304.998 577.869H306.248V577.749L306.226 577.632L304.998 577.869ZM298.451 566.869L298.339 565.624L294.416 565.978L297.824 567.951L298.451 566.869ZM334.594 544.346L333.457 543.825L333.4 543.95L333.371 544.085L334.594 544.346ZM329.617 500.084L330.564 499.267L330.525 499.222L330.482 499.181L329.617 500.084ZM304.998 485.941L304.726 487.161L304.755 487.167L304.784 487.172L304.998 485.941ZM259.689 485.941L260 487.151L260.083 487.13L260.163 487.097L259.689 485.941ZM234.022 500.084L233.036 499.316L233.015 499.343L232.995 499.371L234.022 500.084ZM234.022 548.798L235.241 548.519L235.179 548.251L235.011 548.034L234.022 548.798ZM263.879 566.869L264.855 567.65L266.133 566.053L264.129 565.645L263.879 566.869ZM259.689 604.846H258.439V605.794L259.353 606.05L259.689 604.846ZM304.998 604.737L305.353 605.936L306.248 605.671V604.737H304.998ZM215.638 574.214L214.589 574.893L214.666 575.013L214.769 575.112L215.638 574.214ZM215.57 574.105L214.499 574.749L214.499 574.749L215.57 574.105ZM215.355 573.73L216.446 573.119L216.446 573.119L215.355 573.73ZM215.219 573.488L214.13 574.101L214.132 574.105L215.219 573.488ZM215.203 573.46L214.113 574.072L214.114 574.073L215.203 573.46ZM214.566 572.537L215.484 571.689L215.484 571.689L214.566 572.537ZM213.79 571.942L213.215 573.052L213.215 573.052L213.79 571.942ZM211.082 572.083L210.392 571.041H210.392L211.082 572.083ZM209.944 573.729L208.727 573.445L208.727 573.445L209.944 573.729ZM209.867 574.425L210.971 575.011L211.117 574.736V574.425H209.867ZM254.744 578.228L255.364 579.314L254.744 578.228ZM247.638 580.215L247.993 581.413L247.994 581.413L247.638 580.215ZM247.519 580.25L247.873 581.449L247.874 581.449L247.519 580.25ZM243.804 580.657V581.907H243.816L243.827 581.907L243.804 580.657ZM243.804 580.657V579.407H243.792L243.78 579.408L243.804 580.657ZM240.578 580.638L240.508 581.886H240.508L240.578 580.638ZM239.646 580.48L239.895 579.256L239.878 579.252L239.86 579.249L239.646 580.48ZM239.646 580.48L239.397 581.705L239.414 581.709L239.432 581.712L239.646 580.48ZM239.599 580.471L239.35 581.696L239.35 581.696L239.599 580.471ZM235.646 580.064L235.49 581.305L235.49 581.305L235.646 580.064ZM235.585 580.057L235.741 578.817L235.741 578.817L235.585 580.057ZM225.111 577.708L225.567 576.544L225.567 576.544L225.111 577.708ZM224.28 577.383L224.733 576.218L224.733 576.218L224.28 577.383ZM221.807 576.731L222.051 575.505H222.051L221.807 576.731ZM221.525 576.674L221.776 575.45H221.776L221.525 576.674ZM220.031 576.243L219.428 577.337L219.428 577.337L220.031 576.243ZM218.629 575.713L218.322 576.925H218.322L218.629 575.713ZM217.728 575.517L217.484 576.743L217.485 576.743L217.728 575.517ZM217.594 575.491L217.348 576.716L217.35 576.717L217.594 575.491ZM217.012 575.356L216.234 576.335L216.421 576.483L216.648 576.552L217.012 575.356ZM216.715 575.121L217.49 574.14L217.483 574.135L216.715 575.121ZM216.715 575.121L217.483 574.134L217.46 574.116L217.436 574.099L216.715 575.121ZM216.715 575.121L215.94 576.102L215.966 576.122L215.994 576.142L216.715 575.121ZM256.634 588.387L256.178 587.223H256.178L256.634 588.387ZM259.136 587.154L258.539 586.056L258.539 586.056L259.136 587.154ZM253.974 589.387L254.406 590.56L254.406 590.56L253.974 589.387ZM253.909 589.411L253.477 588.238L253.477 588.238L253.909 589.411ZM251.417 590.345L251.87 591.51L251.417 590.345ZM231.932 590.956L232.244 589.746H232.244L231.932 590.956ZM231.128 590.751L230.825 591.964L230.825 591.964L231.128 590.751ZM223.176 588.173L223.711 587.043L223.711 587.043L223.176 588.173ZM220.823 586.934L221.503 585.886L221.467 585.862L221.429 585.841L220.823 586.934ZM220.823 586.934L220.143 587.983L220.179 588.007L220.216 588.028L220.823 586.934ZM220.625 586.825L221.231 585.731L221.23 585.731L220.625 586.825ZM218.416 585.686L218.924 584.544H218.924L218.416 585.686ZM214.23 582.788L213.373 583.698L213.373 583.698L214.23 582.788ZM212.257 580.786L211.353 581.648H211.353L212.257 580.786ZM211.187 579.678L210.303 580.562L210.303 580.562L211.187 579.678ZM210.913 579.365L209.921 580.125L209.921 580.125L210.913 579.365ZM210.761 579.151L209.72 579.844L209.721 579.844L210.761 579.151ZM210.73 579.105L211.779 578.424L211.722 578.336L211.651 578.259L210.73 579.105ZM210.37 578.649L211.406 577.949L211.367 577.892L211.323 577.839L210.37 578.649ZM210.158 578.394L211.13 577.609L211.13 577.609L210.158 578.394ZM209.805 577.907L210.867 577.247L210.863 577.242L209.805 577.907ZM209.801 577.901L210.859 577.235L210.858 577.233L209.801 577.901ZM209.443 577.053L210.659 576.763H210.659L209.443 577.053ZM260.034 574.925L260.75 575.949L261.147 575.672L261.253 575.198L260.034 574.925ZM259.689 586.914H260.939V585.06L259.22 585.755L259.689 586.914ZM306.226 577.632C305.944 576.176 305.267 573.891 304.137 571.655C303.016 569.438 301.372 567.116 299.077 565.788L297.824 567.951C299.511 568.928 300.879 570.752 301.906 572.783C302.922 574.793 303.529 576.856 303.771 578.107L306.226 577.632ZM298.563 568.114C304.003 567.624 312.355 565.892 319.806 562.264C327.233 558.649 334.022 553.017 335.816 544.606L333.371 544.085C331.813 551.388 325.856 556.538 318.712 560.016C311.593 563.482 303.55 565.155 298.339 565.624L298.563 568.114ZM335.73 544.866C337.721 540.523 339.822 533.1 339.746 524.796C339.67 516.475 337.404 507.193 330.564 499.267L328.671 500.9C335.031 508.27 337.174 516.928 337.246 524.819C337.318 532.727 335.308 539.788 333.457 543.825L335.73 544.866ZM330.482 499.181C328.331 497.119 324.522 493.951 320.023 491.081C315.541 488.221 310.27 485.589 305.213 484.709L304.784 487.172C309.365 487.969 314.309 490.4 318.678 493.189C323.032 495.967 326.713 499.032 328.753 500.986L330.482 499.181ZM305.271 484.721C300.319 483.616 292.114 482.295 283.526 481.909C274.976 481.525 265.867 482.058 259.215 484.784L260.163 487.097C266.292 484.586 274.948 484.027 283.414 484.407C291.841 484.785 299.9 486.084 304.726 487.161L305.271 484.721ZM259.378 484.73C256.248 485.535 251.218 487.213 246.216 489.649C241.242 492.072 236.146 495.317 233.036 499.316L235.009 500.851C237.765 497.307 242.447 494.266 247.311 491.897C252.148 489.54 257.018 487.918 260 487.151L259.378 484.73ZM232.995 499.371C229.924 503.797 226.277 511.558 225.212 520.588C224.143 529.649 225.67 540.034 233.033 549.562L235.011 548.034C228.126 539.124 226.686 529.43 227.695 520.881C228.707 512.303 232.184 504.926 235.049 500.796L232.995 499.371ZM232.804 549.077C233.374 551.563 235.686 555.211 240.474 558.759C245.295 562.332 252.697 565.865 263.63 568.094L264.129 565.645C253.481 563.474 246.435 560.066 241.962 556.751C237.457 553.411 235.631 550.223 235.241 548.519L232.804 549.077ZM259.353 606.05C271.535 609.45 290.19 610.425 305.353 605.936L304.644 603.539C289.998 607.875 271.828 606.937 260.025 603.642L259.353 606.05ZM216.687 573.534C216.679 573.522 216.664 573.499 216.642 573.462L214.499 574.749C214.535 574.809 214.565 574.856 214.589 574.893L216.687 573.534ZM216.642 573.462C216.58 573.359 216.525 573.261 216.446 573.119L214.265 574.341C214.342 574.478 214.415 574.608 214.499 574.749L216.642 573.462ZM216.446 573.119C216.405 573.047 216.359 572.964 216.306 572.87L214.132 574.105C214.181 574.192 214.224 574.269 214.265 574.341L216.446 573.119ZM216.308 572.874L216.292 572.847L214.114 574.073L214.13 574.101L216.308 572.874ZM216.293 572.848C216.216 572.711 215.902 572.142 215.484 571.689L213.647 573.385C213.733 573.478 213.828 573.607 213.919 573.748C214.007 573.883 214.074 574.003 214.113 574.072L216.293 572.848ZM215.484 571.689C215.36 571.555 214.978 571.15 214.364 570.832L213.215 573.052C213.446 573.172 213.594 573.327 213.647 573.385L215.484 571.689ZM214.364 570.832C213.719 570.498 212.065 569.934 210.392 571.041L211.772 573.126C212.359 572.737 212.949 572.914 213.215 573.052L214.364 570.832ZM210.392 571.041C209.096 571.899 208.791 573.17 208.727 573.445L211.162 574.013C211.188 573.898 211.303 573.436 211.772 573.126L210.392 571.041ZM208.727 573.445C208.625 573.884 208.617 574.252 208.617 574.425H211.117C211.117 574.338 211.121 574.186 211.162 574.013L208.727 573.445ZM254.124 577.143C252.692 577.961 251.448 578.4 250.755 578.4V580.9C252.146 580.9 253.878 580.163 255.364 579.314L254.124 577.143ZM250.755 578.4C249.334 578.4 248.026 578.796 247.282 579.017L247.994 581.413C248.762 581.185 249.744 580.9 250.755 580.9V578.4ZM247.283 579.016L247.164 579.052L247.874 581.449L247.993 581.413L247.283 579.016ZM247.165 579.051C246.229 579.328 245.937 579.384 245.741 579.384V581.884C246.365 581.884 247.017 581.702 247.873 581.449L247.165 579.051ZM245.741 579.384C245.036 579.384 244.388 579.396 243.78 579.408L243.827 581.907C244.438 581.896 245.063 581.884 245.741 581.884V579.384ZM243.804 579.407H243.804V581.907H243.804V579.407ZM243.78 579.408C242.656 579.429 241.679 579.447 240.647 579.39L240.508 581.886C241.648 581.949 242.717 581.928 243.827 581.907L243.78 579.408ZM240.647 579.39C240.542 579.384 240.427 579.364 239.895 579.256L239.397 581.705C239.851 581.798 240.178 581.867 240.508 581.886L240.647 579.39ZM239.86 579.249L239.86 579.249L239.432 581.712L239.432 581.712L239.86 579.249ZM239.895 579.255L239.848 579.246L239.35 581.696L239.397 581.705L239.895 579.255ZM239.848 579.246C239.389 579.152 238.591 578.99 237.678 578.99V581.49C238.317 581.49 238.898 581.604 239.35 581.696L239.848 579.246ZM237.678 578.99C237.164 578.99 236.623 578.927 235.802 578.824L235.49 581.305C236.284 581.404 236.981 581.49 237.678 581.49V578.99ZM235.802 578.824L235.741 578.817L235.429 581.297L235.49 581.305L235.802 578.824ZM235.741 578.817C235.004 578.724 234.009 578.597 232.959 578.597V581.097C233.831 581.097 234.677 581.202 235.429 581.297L235.741 578.817ZM232.959 578.597C230.857 578.597 228.503 577.694 225.567 576.544L224.655 578.871C227.449 579.966 230.285 581.097 232.959 581.097V578.597ZM225.567 576.544C225.292 576.436 225.014 576.327 224.733 576.218L223.827 578.548C224.104 578.656 224.38 578.764 224.655 578.871L225.567 576.544ZM224.733 576.218C223.77 575.843 222.711 575.636 222.051 575.505L221.564 577.957C222.255 578.094 223.1 578.265 223.827 578.548L224.733 576.218ZM222.051 575.505C221.95 575.485 221.859 575.467 221.776 575.45L221.275 577.899C221.366 577.918 221.464 577.937 221.564 577.957L222.051 575.505ZM221.776 575.45C221.376 575.368 221.103 575.302 220.912 575.247C220.717 575.19 220.648 575.155 220.635 575.148L219.428 577.337C219.868 577.58 220.466 577.733 221.275 577.899L221.776 575.45ZM220.635 575.148C219.987 574.791 219.347 574.605 218.936 574.501L218.322 576.925C218.653 577.009 219.055 577.131 219.428 577.337L220.635 575.148ZM218.936 574.501C218.587 574.413 218.218 574.34 217.971 574.291L217.485 576.743C217.742 576.794 218.047 576.855 218.322 576.925L218.936 574.501ZM217.972 574.291L217.838 574.265L217.35 576.717L217.484 576.743L217.972 574.291ZM217.841 574.265C217.552 574.207 217.432 574.177 217.376 574.16L216.648 576.552C216.832 576.608 217.058 576.658 217.348 576.716L217.841 574.265ZM217.79 574.378C217.684 574.293 217.583 574.214 217.49 574.14L215.941 576.102C216.034 576.176 216.131 576.253 216.234 576.335L217.79 574.378ZM217.483 574.135L217.483 574.134L215.947 576.107L215.948 576.108L217.483 574.135ZM217.436 574.099L217.436 574.099L215.994 576.142L215.994 576.142L217.436 574.099ZM217.49 574.14C217.044 573.788 216.772 573.572 216.507 573.315L214.769 575.112C215.14 575.471 215.514 575.765 215.94 576.102L217.49 574.14ZM257.089 589.551C258.019 589.188 259.024 588.638 259.734 588.252L258.539 586.056C257.798 586.46 256.934 586.927 256.178 587.223L257.089 589.551ZM254.406 590.56C255.272 590.242 256.179 589.907 257.089 589.551L256.178 587.223C255.295 587.569 254.411 587.894 253.543 588.214L254.406 590.56ZM254.34 590.584L254.406 590.56L253.543 588.214L253.477 588.238L254.34 590.584ZM251.87 591.51C252.674 591.197 253.487 590.898 254.34 590.584L253.477 588.238C252.627 588.551 251.792 588.858 250.964 589.18L251.87 591.51ZM243.927 593.26C246.719 593.26 249.773 592.325 251.87 591.51L250.964 589.18C248.961 589.959 246.252 590.76 243.927 590.76V593.26ZM231.62 592.167C233.473 592.644 235.843 593.26 238.367 593.26V590.76C236.206 590.76 234.132 590.232 232.244 589.746L231.62 592.167ZM230.825 591.964C231.08 592.028 231.344 592.096 231.62 592.167L232.244 589.746C231.969 589.675 231.696 589.605 231.431 589.539L230.825 591.964ZM222.641 589.302C225.317 590.57 228.438 591.367 230.825 591.964L231.431 589.539C229.015 588.935 226.131 588.189 223.711 587.043L222.641 589.302ZM220.142 587.983L220.143 587.983L221.503 585.886L221.503 585.886L220.142 587.983ZM220.216 588.028C220.93 588.423 221.767 588.888 222.641 589.302L223.711 587.043C222.921 586.669 222.152 586.242 221.429 585.841L220.216 588.028ZM220.019 587.918L220.217 588.028L221.429 585.841L221.231 585.731L220.019 587.918ZM217.909 586.829C218.559 587.118 219.219 587.475 220.019 587.918L221.23 585.731C220.435 585.291 219.687 584.883 218.924 584.544L217.909 586.829ZM213.373 583.698C214.563 584.82 216.025 585.991 217.909 586.829L218.924 584.544C217.395 583.865 216.169 582.898 215.088 581.879L213.373 583.698ZM211.353 581.648C211.988 582.315 212.719 583.081 213.373 583.698L215.088 581.879C214.492 581.317 213.81 580.602 213.162 579.923L211.353 581.648ZM210.303 580.562C210.601 580.86 210.957 581.234 211.353 581.648L213.162 579.923C212.773 579.515 212.394 579.117 212.071 578.794L210.303 580.562ZM209.921 580.125C209.999 580.226 210.128 580.387 210.303 580.562L212.071 578.794C211.999 578.723 211.943 578.654 211.906 578.605L209.921 580.125ZM209.721 579.844C209.77 579.918 209.838 580.017 209.921 580.125L211.906 578.605C211.866 578.552 211.831 578.502 211.801 578.458L209.721 579.844ZM209.682 579.785C209.695 579.804 209.707 579.824 209.72 579.844L211.801 578.458C211.794 578.447 211.786 578.435 211.779 578.424L209.682 579.785ZM209.335 579.349C209.486 579.573 209.646 579.772 209.81 579.95L211.651 578.259C211.566 578.166 211.483 578.063 211.406 577.949L209.335 579.349ZM209.185 579.179C209.274 579.289 209.361 579.392 209.418 579.458L211.323 577.839C211.269 577.776 211.198 577.693 211.13 577.609L209.185 579.179ZM208.744 578.568C208.918 578.848 209.112 579.088 209.185 579.179L211.13 577.609C211.064 577.526 210.954 577.387 210.867 577.247L208.744 578.568ZM208.743 578.567L208.747 578.573L210.863 577.242L210.859 577.235L208.743 578.567ZM208.228 577.344C208.384 577.999 208.683 578.471 208.744 578.568L210.858 577.233C210.841 577.206 210.719 577.012 210.659 576.763L208.228 577.344ZM208.763 573.838C208.411 574.5 208.276 575.312 208.22 575.879C208.189 576.182 208.177 576.462 208.176 576.685C208.175 576.796 208.177 576.9 208.182 576.991C208.185 577.048 208.193 577.197 208.228 577.344L210.659 576.763C210.684 576.865 210.682 576.926 210.679 576.86C210.677 576.828 210.675 576.774 210.676 576.699C210.677 576.55 210.685 576.349 210.707 576.128C210.755 575.645 210.854 575.232 210.971 575.011L208.763 573.838ZM238.367 593.26H243.927V590.76H238.367V593.26ZM306.248 604.737V577.869H303.748V604.737H306.248ZM259.317 573.901C257.667 575.055 255.952 576.098 254.124 577.143L255.364 579.314C257.228 578.249 259.014 577.164 260.75 575.949L259.317 573.901ZM262.903 566.088C261.722 567.565 259.656 570.894 258.814 574.652L261.253 575.198C261.992 571.905 263.843 568.916 264.855 567.65L262.903 566.088ZM259.734 588.252C259.723 588.258 259.727 588.256 259.754 588.243C259.778 588.232 259.81 588.218 259.851 588.2C259.935 588.164 260.039 588.121 260.157 588.073L259.22 585.755C259.004 585.843 258.711 585.962 258.539 586.056L259.734 588.252ZM258.439 586.914V604.846H260.939V586.914H258.439Z" fill="black"/>
<path d="M219.5 587.745C219.472 585.925 218.625 584.687 218.276 582.982C217.944 581.354 217.606 579.727 217.239 578.109C216.603 575.313 216.234 572.318 215.949 569.468C215.671 566.679 214.977 563.813 214.977 561.001C214.977 559.994 214.621 559.004 214.584 558.007C214.549 557.074 214.411 555.798 214.092 554.905C213.859 554.251 213.641 553.423 213.601 552.742C213.556 551.99 212.643 552.681 212.322 552.753C211.102 553.024 210.1 553.528 208.783 553.528C208.251 553.528 207.653 553.763 207.264 554.075C206.897 554.368 205.735 553.783 205.735 554.61C205.735 556.54 206.128 558.413 206.128 560.324C206.128 563.581 206.348 567.014 206.707 570.243C206.835 571.399 206.595 572.499 206.958 573.63C207.394 574.985 207.482 576.515 207.799 577.913C209.071 583.508 211.1 588.907 212.322 594.529C212.71 596.312 213.091 598.049 213.415 599.828C213.707 601.434 214.387 603.118 214.387 604.755C214.387 605.769 217.061 603.927 217.632 603.674C218.288 603.382 218.79 603.322 219.5 603.28C219.872 603.258 219.697 601.711 219.697 601.412C219.697 600.134 219.697 598.856 219.697 597.578C219.697 596.841 219.848 595.918 219.598 595.218C219.407 594.683 219.138 593.808 219.107 593.251C219.043 592.101 218.401 590.551 217.883 589.515C216.967 587.683 216.505 585.251 215.96 583.266C214.843 579.19 213.932 575.001 213.054 570.877C212.471 568.137 211.785 565.479 211.284 562.727C210.963 560.957 210.847 559.262 210.847 557.461C210.847 556.355 210.847 557.102 210.847 557.756C210.847 558.861 210.454 559.89 210.454 561.001C210.454 566.737 210.869 572.418 211.59 578.109C212.013 581.443 212.181 585.018 213.404 588.182C214.545 591.136 215.264 594.291 216.55 597.184C217.309 598.891 218.038 601.392 217.927 603.28C217.901 603.722 217.73 602.291 217.73 602.002C217.73 599.21 216.504 596.153 215.807 593.492C213.99 586.554 213.187 579.394 211.634 572.407C210.69 568.159 210.258 563.965 210.258 559.624C210.258 558.443 210.454 554.903 210.454 556.085" stroke="#AAAAAA" stroke-width="5.50799" stroke-linecap="round"/>
<path d="M218.473 544.831C216.981 546.489 215.361 550.042 214.203 551.987L205.145 553.528C203.839 553.528 201.543 552.06 201.015 550.873C200.82 550.433 200.37 550.124 200.13 549.693C199.859 549.205 199.619 548.719 199.344 548.229C198.543 546.806 198.443 545.226 197.956 543.695C196.543 539.256 196.45 533.389 198.754 529.242C199.235 528.375 199.936 527.674 200.381 526.784C200.663 526.22 200.941 525.394 201.365 524.97C202.528 523.807 202.195 522.022 202.195 520.491C202.195 519.526 201.802 518.472 201.802 517.497C201.802 516.189 200.869 514.955 200.818 513.652C200.78 512.658 200.818 511.653 200.818 510.658C200.818 509.541 201.368 511.275 201.408 511.642C201.58 513.188 202.732 514.816 203.375 516.263C203.725 517.051 204.116 517.946 204.642 518.623C204.885 518.935 204.83 519.278 205.232 519.508C205.414 519.611 206.024 520.222 206.128 520.403C206.497 521.05 207.128 521.515 207.504 522.173C208.083 523.185 209.083 524.329 209.864 525.221C211.367 526.939 213.831 528.231 214.977 530.236C215.91 531.869 217.728 532.985 218.56 534.649C219.399 536.326 219.5 537.704 219.5 539.566C219.5 541.202 219.625 543.551 218.473 544.831Z" fill="white" stroke="#AAAAAA" stroke-width="5.50799" stroke-linecap="round"/>
<path d="M209.668 551.562C210.097 548.985 211.942 546.97 212.41 544.395C212.522 543.776 212.421 543.048 212.421 542.418C212.421 540.912 210.986 539.705 209.963 538.681C208.425 537.143 207.144 534.118 206.674 532.05C206.22 530.052 205.341 528.036 205.341 525.998" stroke="#AAAAAA" stroke-width="5.50799" stroke-linecap="round"/>
<path d="M255.888 511.637C256.456 510.3 258.113 507.993 259.735 507.79C260.325 507.716 260.677 507.149 261.337 507.149C262.104 507.149 262.786 507.469 263.421 507.469C264.41 507.469 265.879 509.02 266.128 509.891C266.475 511.106 266.787 513.17 266.787 510.675" stroke="black" stroke-width="2.5" stroke-linecap="round"/>
<path d="M296.922 511.637C298.555 509.391 300.04 507.241 303.155 507.808C305.952 508.316 306.86 509.02 306.86 511.957" stroke="black" stroke-width="2.5" stroke-linecap="round"/>
<path d="M260.375 520.294C260.375 520.76 260.02 523.091 260.696 523.429C261.003 523.582 261.489 522.529 261.729 522.289C261.915 522.102 262.989 521.481 262.869 521.327C262.559 520.929 261.999 520.423 261.497 520.312C260.514 520.093 260.252 523.179 261.177 523.179C262.231 523.179 263.361 521.143 261.337 521.256C257.56 521.466 260.528 526.376 262.619 522.716C263.15 521.787 262.358 520.615 261.177 520.615C259.294 520.615 259.734 521.975 259.734 523.5" stroke="black" stroke-width="2.5" stroke-linecap="round"/>
<path d="M301.089 519.972C301.173 523.44 305.019 522.428 304.277 519.83C303.807 518.187 299.121 521.896 302.371 521.896C303.425 521.896 303.653 521.314 303.653 520.293C303.653 519.161 301.639 519.498 301.427 520.453C301.228 521.347 301.381 522.515 302.122 523.107C302.809 523.657 303.653 520.987 303.653 520.453C303.653 518.666 300.019 519.964 300.127 521.896C300.21 523.386 303.974 522.549 303.974 520.774C303.974 519.588 302.846 519.972 301.89 519.972C300.657 519.972 300.707 520.851 300.768 521.896C300.892 524.01 305.834 520.934 302.05 520.934" stroke="black" stroke-width="2.5" stroke-linecap="round"/>
<path d="M284.739 513.881C284.739 519.625 286.342 524.987 286.342 530.712C286.342 533.083 285.868 534.35 284.418 536.162C283.537 537.263 280.386 534.719 279.289 534.719" stroke="black" stroke-width="2.5" stroke-linecap="round"/>
<path d="M275.442 549.466C277.24 553.696 281.47 554.082 283.457 550.107" stroke="black" stroke-width="2.5" stroke-linecap="round"/>
<path d="M269.973 539.826C269.845 540.153 268.718 543.078 268.372 542.387" stroke="black" stroke-width="2.5" stroke-linecap="round"/>
<path d="M277.336 538.545V542.067" stroke="black" stroke-width="2.5" stroke-linecap="round"/>
<path d="M287.581 539.826C287.581 541.179 287.481 542.556 288.221 543.668" stroke="black" stroke-width="2.5" stroke-linecap="round"/>
<path d="M295.266 539.506C296.309 540.297 297.695 541.841 298.787 542.387" stroke="black" stroke-width="2.5" stroke-linecap="round"/>
<path d="M275.095 487.321C273.773 489 272.569 490.493 271.644 492.444C271.205 493.372 270.293 494.97 270.293 495.966" stroke="black" stroke-width="2.5" stroke-linecap="round"/>
<path d="M282.459 487.96V495.964" stroke="black" stroke-width="2.5" stroke-linecap="round"/>
<path d="M289.503 488.28C291.897 489.111 292.767 490.058 293.914 492.122C294.245 492.718 294.873 494.807 295.266 495.004" stroke="black" stroke-width="2.5" stroke-linecap="round"/>
<path d="M298.675 447.607C302.656 449.912 304.699 455.901 305.222 458.607V473.798V485.475C290.318 489.888 271.905 488.931 259.913 485.583V458.607C259.913 453.998 262.707 449.353 264.103 447.607C242.522 443.207 235.207 433.726 234.246 429.536C219.999 411.098 228.31 389.377 234.246 380.821C240.113 373.279 253.802 368.25 259.913 366.679C272.694 361.441 295.445 364.496 305.222 366.679C314.86 368.355 325.651 376.806 329.841 380.821C343.041 396.117 338.659 416.702 334.818 425.083C331.465 440.798 309.326 446.647 298.675 447.607Z" fill="#FF00C7" stroke="black" stroke-width="2.5"/>
<path d="M256.111 392.375C256.68 391.038 258.337 388.73 259.958 388.528C260.549 388.454 260.9 387.886 261.561 387.886C262.327 387.886 263.01 388.207 263.645 388.207C264.634 388.207 266.103 389.758 266.352 390.629C266.699 391.844 267.011 393.908 267.011 391.413" stroke="black" stroke-width="2.5" stroke-linecap="round"/>
<path d="M297.146 392.375C298.779 390.129 300.264 387.979 303.379 388.546C306.176 389.054 307.084 389.758 307.084 392.695" stroke="black" stroke-width="2.5" stroke-linecap="round"/>
<path d="M260.599 401.032C260.599 401.498 260.244 403.828 260.92 404.166C261.227 404.32 261.713 403.267 261.953 403.026C262.139 402.84 263.213 402.219 263.093 402.065C262.783 401.666 262.223 401.161 261.721 401.05C260.738 400.831 260.476 403.917 261.401 403.917C262.455 403.917 263.585 401.881 261.561 401.993C257.784 402.203 260.752 407.114 262.843 403.454C263.374 402.525 262.582 401.352 261.401 401.352C259.518 401.352 259.958 402.713 259.958 404.238" stroke="black" stroke-width="2.5" stroke-linecap="round"/>
<path d="M301.313 400.71C301.397 404.178 305.243 403.166 304.501 400.568C304.031 398.925 299.345 402.634 302.595 402.634C303.649 402.634 303.877 402.052 303.877 401.031C303.877 399.899 301.863 400.236 301.651 401.191C301.453 402.085 301.605 403.253 302.346 403.845C303.033 404.395 303.877 401.725 303.877 401.191C303.877 399.404 300.244 400.702 300.351 402.634C300.434 404.124 304.198 403.287 304.198 401.512C304.198 400.326 303.07 400.71 302.114 400.71C300.881 400.71 300.931 401.589 300.992 402.634C301.116 404.748 306.059 401.672 302.274 401.672" stroke="black" stroke-width="2.5" stroke-linecap="round"/>
<path d="M284.963 394.619C284.963 400.362 286.566 405.724 286.566 411.449C286.566 413.82 286.092 415.087 284.642 416.899C283.761 418 280.61 415.456 279.513 415.456" stroke="black" stroke-width="2.5" stroke-linecap="round"/>
<path d="M275.666 430.204C277.464 434.434 281.694 434.82 283.681 430.845" stroke="black" stroke-width="2.5" stroke-linecap="round"/>
<path d="M270.197 420.564C270.069 420.891 268.942 423.816 268.596 423.125" stroke="black" stroke-width="2.5" stroke-linecap="round"/>
<path d="M277.56 419.283V422.805" stroke="black" stroke-width="2.5" stroke-linecap="round"/>
<path d="M287.805 420.564C287.805 421.917 287.705 423.294 288.446 424.406" stroke="black" stroke-width="2.5" stroke-linecap="round"/>
<path d="M295.49 420.244C296.533 421.034 297.919 422.579 299.011 423.125" stroke="black" stroke-width="2.5" stroke-linecap="round"/>
<path d="M275.32 368.059C273.997 369.738 272.793 371.23 271.869 373.182C271.429 374.11 270.517 375.708 270.517 376.703" stroke="black" stroke-width="2.5" stroke-linecap="round"/>
<path d="M282.683 368.698V376.702" stroke="black" stroke-width="2.5" stroke-linecap="round"/>
<path d="M289.727 369.018C292.121 369.849 292.991 370.796 294.138 372.86C294.469 373.456 295.097 375.545 295.489 375.741" stroke="black" stroke-width="2.5" stroke-linecap="round"/>
<path d="M221.456 476.877C234.861 476.877 248.659 478.143 261.958 476.206C262.588 474.624 267.419 473.827 268.907 472.996C271.166 471.735 273.96 471.334 276.123 469.824C277.556 468.824 281.537 468.145 283.071 468.145C284.314 468.145 288.033 467.397 289.218 466.652C291.593 465.16 286.216 466.802 284.942 466.802C282.411 466.802 280.102 466.886 277.696 467.436C275.521 467.933 272.522 468.668 270.51 468.817C269.348 468.903 268.057 469.024 267.185 470.011C266.566 470.71 265.597 472.672 265.136 471.802C264.638 470.863 264.976 468.761 264.364 468.145C263.731 467.509 263.027 466.112 263.027 465.122C263.027 463.817 261.179 458.905 260.474 457.92C258.748 455.511 258.463 451.605 256.851 449.002C255.221 446.369 252.332 442.871 251.387 439.784C250.687 437.496 249.177 436.061 248.062 434.038C247.065 432.228 246.086 430.063 244.855 428.515C242.743 425.86 241.091 423.082 238.708 420.753C236.306 418.405 235.815 417.767 232.561 417.767C230.426 417.767 227.421 417.07 225.375 417.805C220.943 419.396 215.971 418.776 211.181 419.111C205.533 419.505 200.672 422.95 195.414 425.492C191.327 427.467 186.487 427.949 182.556 430.194C179.849 431.74 177.091 432.399 174.183 432.545C172.412 432.634 175.63 437.027 176.172 438.254C177.3 440.806 178.595 443.331 179.765 445.979C182.625 452.447 188.518 457.195 192.177 463.107C195.66 468.735 200.741 472.045 205.599 475.534C209.686 478.469 216.776 476.877 221.456 476.877Z" fill="#AAAAAA" stroke="#AAAAAA" stroke-width="5.50799" stroke-linecap="round"/>
<path d="M210.341 458.34C209.757 457.756 209.064 457.136 208.662 456.412C208.385 455.914 207.858 455.096 207.736 454.547C207.453 453.274 207.481 451.953 207.481 450.63C207.481 449.31 207.262 447.765 207.916 446.588C208.192 446.091 208.719 444.993 209.291 444.785C209.94 444.549 210.782 443.722 211.274 443.231C213.662 440.842 217.134 440.681 220.345 440.681C220.916 440.681 221.487 440.681 222.058 440.681C222.845 440.681 223.629 441.012 224.393 441.054C225.067 441.092 225.773 441.367 226.41 441.58C227.02 441.783 227.666 441.834 228.151 442.27C229.039 443.07 229.739 444.024 230.555 444.84C230.966 445.251 231.216 445.738 231.578 446.181C231.779 446.427 231.773 446.806 231.979 447.024C232.122 447.175 232.464 447.558 232.476 447.77C232.502 448.211 232.735 448.646 232.856 449.068C232.933 449.339 233.098 449.529 233.098 449.822C233.098 450.304 232.858 449.974 232.594 450.195C232.457 450.308 231.863 450.331 231.668 450.374C231.239 450.47 230.797 450.533 230.362 450.63C229.265 450.874 228.235 451.423 227.315 452.06C225.735 453.154 223.872 453.972 222.155 454.83C220.872 455.472 219.486 455.968 218.237 456.661C217.148 457.266 215.575 457.461 214.597 458.243C214.178 458.578 213.515 458.661 213.104 458.989C212.819 459.217 211.999 459.252 211.833 459.583" stroke="black" stroke-width="5.50799" stroke-linecap="round"/>
<path d="M206.859 447.77C204.585 447.77 202.278 447.84 200.116 447.023C199.485 446.785 198.753 446.745 198.092 446.643C197.772 446.594 197.457 446.402 197.159 446.402" stroke="black" stroke-width="5.50799" stroke-linecap="round"/>
<path d="M219.171 440.931C219.171 438.214 219.668 435.56 219.668 432.847" stroke="black" stroke-width="5.50799" stroke-linecap="round"/>
<path d="M213.823 450.257C213.823 450.832 213.947 450.829 213.947 450.382" stroke="black" stroke-width="5.50799" stroke-linecap="round"/>
<path d="M221.036 447.397C221.016 447.443 220.663 448.209 220.663 448.019" stroke="black" stroke-width="5.50799" stroke-linecap="round"/>
<path d="M298.371 328.345C302.352 330.65 304.395 336.639 304.919 339.345V354.535V366.213C290.015 370.626 271.602 369.669 259.61 366.321V339.345C259.61 334.735 262.403 330.091 263.8 328.345C242.219 323.945 234.903 314.464 233.943 310.274C219.695 291.835 228.006 270.115 233.943 261.559C239.81 254.016 253.498 248.988 259.61 247.416C272.391 242.178 295.141 245.234 304.919 247.416C314.557 249.093 325.348 257.543 329.538 261.559C342.738 276.854 338.356 297.44 334.514 305.821C331.162 321.535 309.022 327.385 298.371 328.345Z" fill="#20FF86" stroke="black" stroke-width="2.5"/>
<path d="M255.808 273.112C256.376 271.775 258.034 269.468 259.655 269.265C260.246 269.192 260.597 268.624 261.258 268.624C262.024 268.624 262.706 268.945 263.342 268.945C264.331 268.945 265.8 270.496 266.049 271.367C266.396 272.582 266.708 274.646 266.708 272.151" stroke="black" stroke-width="2.5" stroke-linecap="round"/>
<path d="M296.842 273.112C298.476 270.866 299.96 268.717 303.076 269.283C305.873 269.792 306.78 270.496 306.78 273.433" stroke="black" stroke-width="2.5" stroke-linecap="round"/>
<path d="M260.296 281.77C260.296 282.236 259.941 284.566 260.617 284.904C260.924 285.058 261.409 284.004 261.65 283.764C261.836 283.578 262.91 282.957 262.789 282.803C262.48 282.404 261.92 281.899 261.418 281.787C260.435 281.569 260.173 284.655 261.097 284.655C262.152 284.655 263.282 282.619 261.258 282.731C257.481 282.941 260.449 287.852 262.54 284.192C263.071 283.263 262.278 282.09 261.097 282.09C259.214 282.09 259.655 283.451 259.655 284.975" stroke="black" stroke-width="2.5" stroke-linecap="round"/>
<path d="M301.009 281.448C301.094 284.916 304.94 283.904 304.197 281.306C303.728 279.663 299.041 283.372 302.292 283.372C303.346 283.372 303.574 282.79 303.574 281.769C303.574 280.637 301.56 280.974 301.348 281.929C301.149 282.822 301.302 283.991 302.042 284.583C302.73 285.133 303.574 282.463 303.574 281.929C303.574 280.142 299.94 281.439 300.047 283.372C300.13 284.862 303.894 284.025 303.894 282.25C303.894 281.064 302.767 281.448 301.811 281.448C300.577 281.448 300.627 282.327 300.689 283.372C300.813 285.486 305.755 282.41 301.971 282.41" stroke="black" stroke-width="2.5" stroke-linecap="round"/>
<path d="M284.66 275.357C284.66 281.1 286.262 286.462 286.262 292.187C286.262 294.558 285.789 295.825 284.339 297.637C283.458 298.738 280.307 296.194 279.21 296.194" stroke="black" stroke-width="2.5" stroke-linecap="round"/>
<path d="M275.363 310.942C277.161 315.172 281.39 315.558 283.378 311.583" stroke="black" stroke-width="2.5" stroke-linecap="round"/>
<path d="M269.894 301.302C269.766 301.629 268.638 304.554 268.293 303.863" stroke="black" stroke-width="2.5" stroke-linecap="round"/>
<path d="M277.257 300.021V303.542" stroke="black" stroke-width="2.5" stroke-linecap="round"/>
<path d="M287.502 301.301C287.502 302.654 287.401 304.032 288.142 305.143" stroke="black" stroke-width="2.5" stroke-linecap="round"/>
<path d="M295.186 300.981C296.23 301.772 297.616 303.317 298.708 303.863" stroke="black" stroke-width="2.5" stroke-linecap="round"/>
<path d="M275.016 248.797C273.693 250.475 272.49 251.968 271.565 253.919C271.126 254.848 270.214 256.446 270.214 257.441" stroke="black" stroke-width="2.5" stroke-linecap="round"/>
<path d="M282.38 249.436V257.44" stroke="black" stroke-width="2.5" stroke-linecap="round"/>
<path d="M289.423 249.756C291.817 250.587 292.688 251.534 293.834 253.598C294.165 254.194 294.794 256.283 295.186 256.479" stroke="black" stroke-width="2.5" stroke-linecap="round"/>
<path d="M220.628 355.576C234.033 355.576 247.831 356.842 261.131 354.904C261.76 353.323 266.591 352.525 268.079 351.695C270.338 350.433 273.132 350.032 275.295 348.523C276.728 347.522 280.709 346.843 282.243 346.843C283.486 346.843 287.206 346.095 288.39 345.351C290.765 343.858 285.388 345.5 284.114 345.5C281.583 345.5 279.274 345.585 276.868 346.134C274.693 346.631 271.694 347.366 269.682 347.515C268.52 347.601 267.229 347.722 266.357 348.709C265.738 349.409 264.769 351.37 264.308 350.5C263.81 349.562 264.148 347.459 263.536 346.843C262.903 346.208 262.2 344.81 262.2 343.821C262.2 342.516 260.351 337.603 259.646 336.619C257.92 334.209 257.635 330.304 256.023 327.7C254.394 325.067 251.504 321.569 250.559 318.483C249.859 316.194 248.349 314.76 247.234 312.736C246.237 310.926 245.259 308.761 244.027 307.213C241.915 304.559 240.264 301.781 237.88 299.451C235.478 297.103 234.987 296.466 231.733 296.466C229.598 296.466 226.593 295.768 224.547 296.503C220.115 298.094 215.143 297.475 210.354 297.809C204.706 298.203 199.845 301.648 194.586 304.19C190.5 306.165 185.659 306.647 181.728 308.892C179.021 310.439 176.263 311.097 173.355 311.243C171.584 311.332 174.802 315.725 175.344 316.953C176.472 319.504 177.767 322.029 178.937 324.677C181.797 331.145 187.69 335.893 191.349 341.806C194.832 347.433 199.913 350.744 204.771 354.232C208.859 357.167 215.948 355.576 220.628 355.576Z" fill="#AAAAAA" stroke="#AAAAAA" stroke-width="5.50799" stroke-linecap="round"/>
<path d="M220.509 322.697C219.406 322.912 218.723 323.917 217.962 324.678C217.182 325.458 217.301 326.464 217.301 327.55C217.301 328.023 217.19 328.667 217.349 329.112C217.479 329.477 217.549 330.336 218.009 330.439C218.495 330.546 219.1 330.909 219.519 331.141C220.061 331.442 220.449 331.566 221.075 331.566C221.851 331.566 223.091 331.609 223.602 332.247C224.199 332.993 223.344 334.58 222.821 335.104C222.486 335.439 222.204 336.163 221.689 336.278C221.184 336.39 220.71 336.943 220.179 336.943C219.699 336.943 219.236 337.226 218.764 337.226C218.481 337.226 218.14 337.364 217.862 337.41C217.606 337.453 217.257 337.33 217.018 337.436C216.598 337.623 215.95 337.509 215.488 337.509C214.897 337.509 214.307 337.509 213.716 337.509C213.182 337.509 212.798 337.379 212.301 337.321C211.992 337.284 211.054 336.902 210.886 336.608C210.755 336.379 210.387 336.204 210.178 336.042C209.924 335.844 209.681 335.439 209.381 335.339C208.903 335.18 208.533 334.314 208.338 333.877C207.792 332.649 208.055 331.223 208.454 329.983C208.729 329.127 208.823 328.227 209.208 327.414C209.517 326.763 209.921 326.169 210.32 325.548C210.961 324.55 211.618 323.263 212.956 323.263C213.411 323.263 214.018 322.969 214.424 322.744C214.974 322.438 215.706 322.247 216.316 322.136C217.323 321.953 218.638 321.512 219.566 322.131" stroke="black" stroke-width="5.50799" stroke-linecap="round"/>
<path d="M216.169 315.527C216.802 315.742 217.339 316.017 217.889 316.376C218.126 316.531 218.447 316.758 218.717 316.847" stroke="black" stroke-width="5.50799" stroke-linecap="round"/>
<path d="M213.339 331.095C213.278 331.062 213.215 331.032 213.151 331.004C213.153 330.987 213.154 330.97 213.155 330.953C213.207 330.254 213.343 329.269 213.716 328.662C213.836 328.467 214.351 328.137 214.565 328.406C214.786 328.682 214.772 329.047 214.869 329.375C215.1 330.155 215.342 330.931 215.561 331.713C215.646 332.016 215.788 332.282 215.973 332.503C216.007 332.513 216.041 332.522 216.075 332.531C216.707 332.693 217.336 332.824 217.967 332.981C218.733 333.173 218.041 333.265 217.679 333.265C216.999 333.265 216.381 332.99 215.973 332.503C215.368 332.326 214.846 331.989 214.282 331.708C213.943 331.538 213.672 331.27 213.339 331.095Z" fill="#AAAAAA"/>
<path d="M214.471 325.622C213.631 325.622 213.041 326.235 212.495 326.849C212.068 327.329 211.551 327.801 211.379 328.453C211.277 328.836 211.358 329.329 211.358 329.726C211.358 330.262 211.971 330.405 212.322 330.623C212.634 330.816 213.012 330.922 213.339 331.095C213.672 331.27 213.943 331.538 214.282 331.708C214.877 332.005 215.426 332.364 216.075 332.531C216.707 332.693 217.336 332.824 217.967 332.981C218.733 333.173 218.041 333.265 217.679 333.265C216.69 333.265 215.833 332.684 215.561 331.713C215.342 330.931 215.1 330.155 214.869 329.375C214.772 329.047 214.786 328.682 214.565 328.406C214.351 328.137 213.836 328.467 213.716 328.662C213.343 329.269 213.207 330.254 213.155 330.953C213.078 331.994 212.762 333.034 212.605 334.072C212.574 334.278 212.468 335.235 212.678 335.34" stroke="black" stroke-width="5.50799" stroke-linecap="round"/>
<path d="M298.654 209.083C302.635 211.387 304.678 217.376 305.201 220.083V235.273V246.951C290.297 251.363 271.884 250.407 259.892 247.059V220.083C259.892 215.473 262.686 210.829 264.082 209.083C242.501 204.683 235.186 195.202 234.225 191.011C219.978 172.573 228.289 150.853 234.225 142.297C240.092 134.754 253.781 129.726 259.892 128.154C272.673 122.916 295.424 125.972 305.201 128.154C314.84 129.83 325.63 138.281 329.82 142.297C343.02 157.592 338.638 178.178 334.797 186.559C331.444 202.273 309.305 208.122 298.654 209.083Z" fill="#0038FF" stroke="black" stroke-width="2.5"/>
<path d="M256.09 153.85C256.658 152.513 258.316 150.206 259.937 150.003C260.528 149.929 260.879 149.362 261.54 149.362C262.306 149.362 262.988 149.682 263.624 149.682C264.613 149.682 266.082 151.233 266.331 152.105C266.678 153.319 266.99 155.383 266.99 152.888" stroke="black" stroke-width="2.5" stroke-linecap="round"/>
<path d="M297.125 153.85C298.758 151.604 300.243 149.455 303.358 150.021C306.155 150.53 307.063 151.234 307.063 154.171" stroke="black" stroke-width="2.5" stroke-linecap="round"/>
<path d="M260.578 162.507C260.578 162.973 260.223 165.304 260.899 165.642C261.206 165.795 261.692 164.742 261.932 164.502C262.118 164.316 263.192 163.695 263.072 163.54C262.762 163.142 262.202 162.636 261.7 162.525C260.717 162.306 260.455 165.392 261.38 165.392C262.434 165.392 263.564 163.356 261.54 163.469C257.763 163.679 260.731 168.589 262.822 164.929C263.353 164.001 262.561 162.828 261.38 162.828C259.497 162.828 259.937 164.188 259.937 165.713" stroke="black" stroke-width="2.5" stroke-linecap="round"/>
<path d="M301.291 162.186C301.376 165.654 305.222 164.642 304.479 162.043C304.01 160.401 299.323 164.109 302.574 164.109C303.628 164.109 303.856 163.527 303.856 162.506C303.856 161.375 301.842 161.711 301.63 162.667C301.431 163.56 301.584 164.728 302.324 165.32C303.012 165.87 303.856 163.2 303.856 162.667C303.856 160.879 300.222 162.177 300.33 164.109C300.413 165.6 304.177 164.763 304.177 162.987C304.177 161.801 303.049 162.186 302.093 162.186C300.859 162.186 300.909 163.065 300.971 164.109C301.095 166.223 306.037 163.148 302.253 163.148" stroke="black" stroke-width="2.5" stroke-linecap="round"/>
<path d="M284.942 156.094C284.942 161.838 286.545 167.2 286.545 172.925C286.545 175.296 286.071 176.563 284.621 178.375C283.74 179.476 280.589 176.932 279.492 176.932" stroke="black" stroke-width="2.5" stroke-linecap="round"/>
<path d="M275.645 191.679C277.443 195.909 281.673 196.295 283.66 192.321" stroke="black" stroke-width="2.5" stroke-linecap="round"/>
<path d="M270.176 182.039C270.048 182.366 268.921 185.291 268.575 184.6" stroke="black" stroke-width="2.5" stroke-linecap="round"/>
<path d="M277.54 180.758V184.28" stroke="black" stroke-width="2.5" stroke-linecap="round"/>
<path d="M287.784 182.039C287.784 183.392 287.684 184.77 288.425 185.881" stroke="black" stroke-width="2.5" stroke-linecap="round"/>
<path d="M295.469 181.719C296.512 182.51 297.898 184.055 298.99 184.601" stroke="black" stroke-width="2.5" stroke-linecap="round"/>
<path d="M275.298 129.534C273.976 131.213 272.772 132.706 271.848 134.657C271.408 135.585 270.496 137.183 270.496 138.179" stroke="black" stroke-width="2.5" stroke-linecap="round"/>
<path d="M282.662 130.174V138.178" stroke="black" stroke-width="2.5" stroke-linecap="round"/>
<path d="M289.706 130.494C292.1 131.324 292.97 132.272 294.117 134.336C294.448 134.931 295.076 137.021 295.468 137.217" stroke="black" stroke-width="2.5" stroke-linecap="round"/>
<path d="M219.8 238.356C233.205 238.356 247.003 239.622 260.302 237.684C260.932 236.103 265.763 235.306 267.251 234.475C269.51 233.213 272.304 232.813 274.467 231.303C275.9 230.302 279.881 229.624 281.415 229.624C282.658 229.624 286.377 228.875 287.562 228.131C289.937 226.638 284.56 228.28 283.286 228.28C280.755 228.28 278.446 228.365 276.04 228.915C273.865 229.412 270.866 230.147 268.854 230.295C267.692 230.381 266.401 230.503 265.529 231.489C264.91 232.189 263.941 234.151 263.48 233.281C262.982 232.342 263.32 230.239 262.708 229.624C262.075 228.988 261.371 227.59 261.371 226.601C261.371 225.296 259.523 220.383 258.818 219.399C257.092 216.989 256.807 213.084 255.195 210.48C253.565 207.847 250.676 204.349 249.731 201.263C249.031 198.974 247.521 197.54 246.406 195.516C245.409 193.707 244.43 191.541 243.199 189.993C241.087 187.339 239.435 184.561 237.052 182.231C234.65 179.884 234.159 179.246 230.905 179.246C228.77 179.246 225.765 178.549 223.719 179.283C219.287 180.875 214.315 180.255 209.525 180.589C203.877 180.983 199.016 184.429 193.758 186.97C189.671 188.945 184.831 189.427 180.9 191.672C178.193 193.219 175.435 193.877 172.527 194.023C170.756 194.112 173.974 198.505 174.516 199.733C175.644 202.285 176.939 204.809 178.109 207.457C180.969 213.926 186.862 218.673 190.521 224.586C194.004 230.213 199.085 233.524 203.943 237.012C208.03 239.948 215.12 238.356 219.8 238.356Z" fill="#AAAAAA" stroke="#AAAAAA" stroke-width="5.50799" stroke-linecap="round"/>
<path d="M195.487 212.301C195.487 210.723 195.141 208.741 196.223 207.418C196.708 206.825 197.096 206.271 197.965 206.271C198.869 206.271 199.954 205.861 200.846 206.271C202.145 206.868 203.559 207.365 204.732 208.147" stroke="black" stroke-width="5.50799" stroke-linecap="round"/>
<path d="M217.998 204.128C217.998 202.853 218.225 201.565 218.742 200.383C218.909 200.002 219.244 199.508 219.606 199.304C220.668 198.706 221.634 198.667 222.792 198.336C223.857 198.032 225.119 198.21 225.904 199.036C226.542 199.708 226.384 200.493 226.842 201.18" stroke="black" stroke-width="5.50799" stroke-linecap="round"/>
<path d="M202.856 219.804C202.856 222.092 202.711 224.008 204.435 225.67C205.706 226.896 207.935 227.656 209.638 227.985C211.624 228.37 213.494 228.38 215.519 228.38C216.429 228.38 217.297 228.324 218.199 228.179C219.621 227.95 221.298 227.659 222.643 227.144C224.654 226.375 226.269 225.73 227.944 224.36C229.406 223.164 230.468 221.782 230.929 219.938C231.326 218.35 231.327 216.367 232.135 214.913C232.422 214.396 232.441 213.665 232.671 213.104C232.879 212.596 233.14 212.05 233.14 211.496" stroke="black" stroke-width="5.50799" stroke-linecap="round"/>
<path d="M298.593 89.8207C302.573 92.1255 304.616 98.1144 305.14 100.821V116.011V127.689C290.236 132.101 271.823 131.145 259.831 127.797V100.821C259.831 96.2112 262.624 91.5668 264.021 89.8207C242.44 85.4207 235.124 75.9398 234.164 71.7493C219.916 53.3112 228.227 31.5906 234.164 23.0351C240.031 15.4922 253.72 10.4637 259.831 8.89222C272.612 3.65413 295.362 6.70968 305.14 8.89222C314.778 10.5684 325.569 19.0192 329.759 23.0351C342.959 38.3303 338.577 58.916 334.735 67.297C331.383 83.0112 309.243 88.8604 298.593 89.8207Z" fill="#FFDB20" stroke="black" stroke-width="2.5"/>
<path d="M256.029 34.5882C256.597 33.2513 258.254 30.9439 259.876 30.7413C260.466 30.6674 260.818 30.1001 261.479 30.1001C262.245 30.1001 262.927 30.4207 263.562 30.4207C264.551 30.4207 266.02 31.9714 266.269 32.8428C266.616 34.0574 266.928 36.1214 266.928 33.6265" stroke="black" stroke-width="2.5" stroke-linecap="round"/>
<path d="M297.063 34.5886C298.697 32.3425 300.181 30.193 303.297 30.7594C306.093 31.2679 307.001 31.9721 307.001 34.9092" stroke="black" stroke-width="2.5" stroke-linecap="round"/>
<path d="M260.517 43.2454C260.517 43.7116 260.161 46.042 260.837 46.3799C261.145 46.5335 261.63 45.4802 261.87 45.2401C262.057 45.0539 263.13 44.4328 263.01 44.2783C262.7 43.8799 262.14 43.3746 261.639 43.2632C260.656 43.0447 260.394 46.1306 261.318 46.1306C262.373 46.1306 263.503 44.0946 261.479 44.2071C257.702 44.4169 260.669 49.3276 262.761 45.6675C263.292 44.7388 262.499 43.5659 261.318 43.5659C259.435 43.5659 259.876 44.9266 259.876 46.4512" stroke="black" stroke-width="2.5" stroke-linecap="round"/>
<path d="M301.23 42.924C301.315 46.3917 305.16 45.3798 304.418 42.7815C303.949 41.1387 299.262 44.8475 302.512 44.8475C303.567 44.8475 303.795 44.2656 303.795 43.2446C303.795 42.113 301.781 42.4495 301.568 43.4049C301.37 44.2981 301.523 45.4663 302.263 46.0586C302.95 46.6084 303.795 43.9384 303.795 43.4049C303.795 41.6173 300.161 42.9152 300.268 44.8475C300.351 46.3379 304.115 45.5009 304.115 43.7254C304.115 42.5395 302.987 42.924 302.031 42.924C300.798 42.924 300.848 43.8028 300.909 44.8475C301.034 46.9614 305.976 43.8857 302.192 43.8857" stroke="black" stroke-width="2.5" stroke-linecap="round"/>
<path d="M284.88 36.8325C284.88 42.576 286.483 47.9379 286.483 53.663C286.483 56.0342 286.009 57.301 284.56 59.1129C283.679 60.214 280.527 57.6703 279.431 57.6703" stroke="black" stroke-width="2.5" stroke-linecap="round"/>
<path d="M275.584 72.4175C277.381 76.6475 281.611 77.0332 283.598 73.0586" stroke="black" stroke-width="2.5" stroke-linecap="round"/>
<path d="M270.114 62.7772C269.987 63.1047 268.859 66.0293 268.514 65.3385" stroke="black" stroke-width="2.5" stroke-linecap="round"/>
<path d="M277.478 61.4967V65.0184" stroke="black" stroke-width="2.5" stroke-linecap="round"/>
<path d="M287.723 62.7771C287.723 64.13 287.622 65.5077 288.363 66.619" stroke="black" stroke-width="2.5" stroke-linecap="round"/>
<path d="M295.407 62.4574C296.451 63.2481 297.837 64.7927 298.929 65.3388" stroke="black" stroke-width="2.5" stroke-linecap="round"/>
<path d="M275.237 10.2728C273.914 11.9514 272.711 13.4441 271.786 15.3953C271.347 16.3238 270.435 17.9217 270.435 18.9171" stroke="black" stroke-width="2.5" stroke-linecap="round"/>
<path d="M282.601 10.912V18.9159" stroke="black" stroke-width="2.5" stroke-linecap="round"/>
<path d="M289.644 11.2318C292.038 12.0624 292.908 13.0099 294.055 15.0737C294.386 15.6693 295.015 17.759 295.407 17.9551" stroke="black" stroke-width="2.5" stroke-linecap="round"/>
<path d="M220.628 119.603C234.033 119.603 247.831 120.869 261.131 118.932C261.76 117.35 266.591 116.553 268.079 115.722C270.338 114.461 273.132 114.06 275.295 112.55C276.728 111.55 280.709 110.871 282.243 110.871C283.486 110.871 287.205 110.123 288.39 109.379C290.765 107.886 285.388 109.528 284.114 109.528C281.583 109.528 279.274 109.613 276.868 110.162C274.693 110.659 271.694 111.394 269.682 111.543C268.52 111.629 267.229 111.75 266.357 112.737C265.738 113.436 264.769 115.398 264.308 114.528C263.81 113.589 264.148 111.487 263.536 110.871C262.903 110.235 262.2 108.838 262.2 107.849C262.2 106.543 260.351 101.631 259.646 100.646C257.92 98.2366 257.635 94.3315 256.023 91.7277C254.394 89.0946 251.504 85.5969 250.559 82.5104C249.859 80.222 248.349 78.7875 247.234 76.7636C246.237 74.9542 245.258 72.7887 244.027 71.2407C241.915 68.5865 240.264 65.8085 237.88 63.4788C235.478 61.1312 234.987 60.4934 231.733 60.4934C229.598 60.4934 226.593 59.7963 224.547 60.5307C220.115 62.1223 215.143 61.5024 210.354 61.8368C204.706 62.2311 199.845 65.6763 194.586 68.218C190.5 70.1932 185.659 70.6746 181.728 72.9199C179.021 74.4664 176.263 75.1247 173.355 75.2709C171.584 75.3599 174.802 79.7531 175.344 80.9804C176.472 83.5323 177.767 86.0571 178.937 88.705C181.797 95.1733 187.69 99.9209 191.349 105.833C194.832 111.461 199.913 114.771 204.771 118.26C208.859 121.195 215.948 119.603 220.628 119.603Z" fill="#AAAAAA" stroke="#AAAAAA" stroke-width="5.51" stroke-linecap="round"/>
<path d="M203.89 82.4255C206.244 81.7853 208.441 80.5706 210.802 80.0011" stroke="black" stroke-width="5.51" stroke-linecap="round"/>
<path d="M207.703 81.2319C208.512 84.5857 210.284 87.4513 211.268 90.7219C211.649 91.9915 212.264 93.1889 212.645 94.4566C212.761 94.8425 213.727 96.8445 213.515 97.1919C213.104 97.8646 210.78 98.294 210.054 98.3071C208.799 98.3296 207.089 96.9239 206.03 96.2763" stroke="black" stroke-width="5.51" stroke-linecap="round"/>
<path d="M225.522 89.2064C224.177 88.1038 218.458 86.0009 218.309 89.26C218.162 92.4709 221.865 92.817 224.06 94.0558C226.143 95.2306 230.731 97.9755 228.048 100.823C225.691 103.325 221.464 102.899 218.826 101.199" stroke="black" stroke-width="5.51" stroke-linecap="round"/>
</svg>
